<?xml version="1.0" encoding="UTF-8" standalone="no"?>
<svg width="120px" height="39px" viewBox="0 0 120 39" version="1.1" xmlns="http://www.w3.org/2000/svg" xmlns:xlink="http://www.w3.org/1999/xlink" xmlns:sketch="http://www.bohemiancoding.com/sketch/ns">
    <!-- Generator: Sketch 3.3.3 (12081) - http://www.bohemiancoding.com/sketch -->
    <title>Group</title>
    <desc>Created with Sketch.</desc>
    <defs></defs>
    <g id="Page-1" stroke="none" stroke-width="1" fill="none" fill-rule="evenodd" sketch:type="MSPage">
        <g id="mobile_web_final12" sketch:type="MSLayerGroup" transform="translate(-324.000000, -29.000000)">
            <g id="Page-1" sketch:type="MSShapeGroup">
                <g id="Group-44" transform="translate(0.000000, 1.000000)">
                    <g id="Group" transform="translate(324.000000, 28.000000)">
                        <path d="M13.5477,15.1456 C12.2517,13.7726 11.0557,13.3986 9.8337,13.3986 C6.1977,13.3986 3.7777,16.1916 3.7777,19.7036 C3.7777,23.4686 6.1977,26.2596 9.8337,26.2596 C11.2567,26.2596 12.6257,25.6126 13.7967,24.1176 L16.3897,25.9596 C14.7927,28.1546 12.4017,29.1016 9.8107,29.1016 C4.3767,29.1016 0.4887,25.4116 0.4887,19.9036 C0.4887,14.2476 4.3767,10.5586 9.8107,10.5586 C12.2027,10.5586 14.2447,11.3316 15.9887,13.3496 L13.5477,15.1456 Z" id="Fill-22" fill="#FFFFFF"></path>
                        <path d="M20.2102,18.3606 L20.2602,18.3606 C20.7342,17.3626 21.9292,16.3916 23.7762,16.3916 C26.9892,16.3916 28.1362,18.6596 28.1362,21.1006 L28.1362,28.6516 L25.1452,28.6516 L25.1452,22.5966 C25.1452,21.2736 25.0462,19.0836 22.9532,19.0836 C20.9822,19.0836 20.2102,20.5296 20.2102,22.1216 L20.2102,28.6516 L17.2212,28.6516 L17.2212,9.8096 L20.2102,9.8096 L20.2102,18.3606 Z" id="Fill-24" fill="#FFFFFF"></path>
                        <path d="M38.0247,21.4736 C38.0007,19.7286 36.8547,18.6326 34.9857,18.6326 C33.2127,18.6326 32.1177,19.7546 31.8937,21.4736 L38.0247,21.4736 Z M31.8937,23.7186 C32.0937,25.4866 33.4397,26.5606 35.1097,26.5606 C36.6037,26.5606 37.5777,25.8606 38.3227,24.9366 L40.4667,26.5606 C39.0717,28.2766 37.3027,28.9526 35.4077,28.9526 C31.7947,28.9526 28.9037,26.4316 28.9037,22.6706 C28.9037,18.9086 31.7947,16.3916 35.4077,16.3916 C38.7487,16.3916 41.0157,18.7336 41.0157,22.8956 L41.0157,23.7186 L31.8937,23.7186 Z" id="Fill-25" fill="#FFFFFF"></path>
                        <path d="M50.4846,20.279 C49.7856,19.554 49.0116,19.084 48.2156,19.084 C46.0226,19.084 44.7016,20.802 44.7016,22.671 C44.7016,24.541 46.0226,26.26 48.2156,26.26 C49.1356,26.26 49.9866,25.86 50.5336,25.139 L52.5266,27.282 C51.3046,28.502 49.2626,28.952 48.2156,28.952 C44.6016,28.952 41.7106,26.431 41.7106,22.671 C41.7106,18.908 44.6016,16.392 48.2156,16.392 C49.7346,16.392 51.4066,16.937 52.5526,18.21 L50.4846,20.279 Z" id="Fill-26" fill="#FFFFFF"></path>
                        <path d="M53.3047,9.8091 L56.2957,9.8091 L56.2957,21.6501 L60.9057,16.6891 L64.7437,16.6891 L59.6097,22.1211 L65.0677,28.6511 L61.1067,28.6511 L56.3467,22.5461 L56.2957,22.5461 L56.2957,28.6511 L53.3047,28.6511 L53.3047,9.8091 Z" id="Fill-27" fill="#FFFFFF"></path>
                        <path d="M72.4547,21.4736 C72.4337,19.7286 71.2857,18.6326 69.4167,18.6326 C67.6467,18.6326 66.5487,19.7546 66.3247,21.4736 L72.4547,21.4736 Z M66.3247,23.7186 C66.5267,25.4866 67.8717,26.5606 69.5407,26.5606 C71.0357,26.5606 72.0067,25.8606 72.7567,24.9366 L74.8987,26.5606 C73.5037,28.2766 71.7327,28.9526 69.8387,28.9526 C66.2247,28.9526 63.3357,26.4316 63.3357,22.6706 C63.3357,18.9086 66.2247,16.3916 69.8387,16.3916 C73.1787,16.3916 75.4467,18.7336 75.4467,22.8956 L75.4467,23.7186 L66.3247,23.7186 Z" id="Fill-28" fill="#FFFFFF"></path>
                        <path d="M82.7811,26.2596 C84.9721,26.2596 86.2961,24.5406 86.2961,22.6706 C86.2961,20.8016 84.9721,19.0836 82.7811,19.0836 C80.5871,19.0836 79.2651,20.8016 79.2651,22.6706 C79.2651,24.5406 80.5871,26.2596 82.7811,26.2596 L82.7811,26.2596 Z M86.3441,26.8566 L86.2961,26.8566 C85.4191,28.3016 83.8531,28.9526 82.1811,28.9526 C78.4921,28.9526 76.2741,26.2106 76.2741,22.6706 C76.2741,19.1326 78.6441,16.3916 82.0581,16.3916 C84.3011,16.3916 85.4971,17.4366 86.1201,18.2106 L86.1951,18.2106 L86.1951,9.8096 L89.1861,9.8096 L89.1861,28.6516 L86.3441,28.6516 L86.3441,26.8566 Z" id="Fill-29" fill="#FFFFFF"></path>
                        <path d="M112.9595,26.2596 C110.7665,26.2596 109.4465,24.5406 109.4465,22.6706 C109.4465,20.8016 110.7665,19.0836 112.9595,19.0836 C115.1555,19.0836 116.4735,20.8016 116.4735,22.6706 C116.4735,24.5406 115.1555,26.2596 112.9595,26.2596 M113.5575,16.3916 C111.8865,16.3916 110.3175,17.0366 109.4465,18.4836 L109.3955,18.4836 L109.3955,16.6886 L106.5525,16.6886 L106.5525,34.3366 L109.5445,34.3366 L109.5445,27.1316 L109.6195,27.1316 C110.2425,27.9046 111.4405,28.9526 113.6825,28.9526 C117.0975,28.9526 119.4665,26.2106 119.4665,22.6706 C119.4665,19.1326 117.2465,16.3916 113.5575,16.3916" id="Fill-30" fill="#102A59"></path>
                        <path d="M103.7606,13.3522 C103.2596,13.3522 102.8526,12.9462 102.8526,12.4432 L102.8526,5.1972 C102.8526,4.5162 102.5886,3.8782 102.1046,3.3952 C101.7506,3.0412 101.7506,2.4652 102.1046,2.1092 C102.4596,1.7542 103.0356,1.7542 103.3916,2.1092 C104.2176,2.9342 104.6706,4.0312 104.6706,5.1972 L104.6706,12.4432 C104.6706,12.9462 104.2626,13.3522 103.7606,13.3522" id="Fill-31" fill="#9DD0EC"></path>
                        <path d="M92.6781,13.3522 C92.1751,13.3522 91.7681,12.9462 91.7681,12.4432 L91.7681,5.1972 C91.7681,4.0332 92.2231,2.9372 93.0481,2.1092 C93.4041,1.7542 93.9791,1.7542 94.3351,2.1092 C94.6901,2.4652 94.6911,3.0412 94.3361,3.3952 C93.8521,3.8782 93.5871,4.5172 93.5871,5.1972 L93.5871,12.4432 C93.5871,12.9462 93.1791,13.3522 92.6781,13.3522" id="Fill-32" fill="#9DD0EC"></path>
                        <path d="M95.505,0.949 C94.969,0.414 94.097,0.413 93.559,0.951 C93.272,1.238 93.148,1.626 93.171,2.004 L94.451,3.282 C94.832,3.307 95.216,3.185 95.505,2.897 C96.043,2.359 96.043,1.488 95.505,0.949" id="Fill-33" fill="#102A59"></path>
                        <path d="M101.045,0.9509 C100.508,1.4879 100.508,2.3599 101.046,2.8979 C101.337,3.1849 101.721,3.3069 102.1,3.2819 L103.38,2.0039 C103.403,1.6229 103.281,1.2379 102.994,0.9509 C102.456,0.4129 101.582,0.4139 101.045,0.9509" id="Fill-34" fill="#102A59"></path>
                        <path d="M70.3646,6.7787 L65.6806,7.9847 L66.5456,9.9547 L67.6186,10.4247 L67.9996,10.8577 L70.3646,6.7787 Z" id="Fill-35" fill="#9DD0EC"></path>
                        <path d="M70.5888,11.474 C68.3688,11.474 66.4188,9.974 65.8468,7.827 C65.5088,6.561 65.6848,5.239 66.3428,4.105 C66.9998,2.97 68.0598,2.16 69.3268,1.822 C69.7408,1.713 70.1648,1.657 70.5898,1.657 C72.8078,1.657 74.7578,3.156 75.3308,5.302 C76.0258,7.918 74.4658,10.613 71.8528,11.308 C71.4388,11.418 71.0138,11.474 70.5888,11.474" id="Fill-36" fill="#9DD0EC"></path>
                        <path d="M72.0725,3.7786 L72.8935,2.1306 L74.2865,3.4646 L70.6315,6.6236 L72.0725,3.7786 Z" id="Fill-37" fill="#FFFFFF"></path>
                        <path d="M71.8136,11.16 C71.4046,11.269 70.9936,11.321 70.5886,11.321 C69.7176,11.321 68.8836,11.068 68.1576,10.634 L68.9446,9.277 L70.5586,6.527 L66.7866,9.399 C66.4346,8.927 66.1556,8.39 65.9946,7.787 C65.3186,5.252 66.8286,2.647 69.3666,1.971 C69.7746,1.862 70.1856,1.81 70.5896,1.81 C72.6916,1.81 74.6146,3.215 75.1826,5.342 C75.8566,7.879 74.3496,10.485 71.8136,11.16 M76.1186,5.093 C75.4496,2.59 73.1766,0.842 70.5896,0.842 L70.5896,0.842 C70.0946,0.842 69.5996,0.907 69.1176,1.035 C67.6396,1.428 66.4036,2.373 65.6376,3.696 C64.8706,5.019 64.6656,6.561 65.0596,8.037 C65.7256,10.54 67.9996,12.289 70.5886,12.289 C71.0836,12.289 71.5796,12.224 72.0626,12.096 C75.1096,11.285 76.9296,8.143 76.1186,5.093" id="Fill-38" fill="#102A59"></path>
                        <path d="M68.3347,7.1653 C68.0047,5.9213 68.7437,4.6433 69.9897,4.3113 C71.2327,3.9823 72.5097,4.7203 72.8417,5.9623 C73.1737,7.2123 72.4317,8.4883 71.1877,8.8203 C69.9437,9.1503 68.6667,8.4103 68.3347,7.1653" id="Fill-39" fill="#FFFFFF"></path>
                        <path d="M70.5883,4.6563 C70.4233,4.6563 70.2593,4.6783 70.0983,4.7203 C69.0823,4.9913 68.4743,6.0393 68.7443,7.0563 C68.9673,7.8913 69.7253,8.4753 70.5883,8.4753 C70.7533,8.4753 70.9183,8.4533 71.0793,8.4103 C72.0953,8.1393 72.7023,7.0893 72.4323,6.0713 C72.2093,5.2383 71.4513,4.6563 70.5883,4.6563 M70.5883,9.3223 C69.3423,9.3223 68.2463,8.4803 67.9253,7.2743 C67.5353,5.8063 68.4123,4.2933 69.8803,3.9013 C70.1133,3.8403 70.3503,3.8093 70.5883,3.8093 C71.8333,3.8093 72.9293,4.6493 73.2513,5.8523 C73.6413,7.3233 72.7653,8.8373 71.2973,9.2293 C71.0643,9.2913 70.8263,9.3223 70.5883,9.3223" id="Fill-40" fill="#102A59"></path>
                        <path d="M102.1749,11.4168 L102.1749,22.1148 C102.1749,23.8618 101.2269,26.1558 98.2109,26.1558 C95.1959,26.1558 94.2499,23.8618 94.2499,22.1148 L94.2499,11.4168 L91.1099,11.4168 L91.1099,22.2158 C91.1099,26.0638 93.6099,28.6018 97.0629,29.0628 L97.0629,29.4488 C97.0629,33.1538 94.0489,36.1658 90.3429,36.1658 C86.6399,36.1658 83.6239,33.1538 83.6239,29.4488 L83.6239,17.0418 L83.6279,17.0418 C83.6279,13.4468 83.2459,11.1948 81.1659,8.8628 C79.1169,6.5668 76.1859,5.3558 72.6889,5.3558 L72.6889,7.6418 C75.5579,7.6418 77.8339,8.5648 79.4589,10.3858 C80.8779,11.9738 81.3139,13.4348 81.3389,16.7498 L81.3369,16.7498 L81.3369,29.4488 C81.3369,34.4128 85.3779,38.4538 90.3429,38.4538 C95.3069,38.4538 99.3479,34.4128 99.3479,29.4488 L99.3479,29.0628 C102.8089,28.6088 105.3159,26.0668 105.3159,22.2158 L105.3159,11.4168 L102.1749,11.4168 Z" id="Fill-41" fill="#102A59"></path>
                        <path d="M85.3335,27.9498 L85.3335,25.2038 C84.7265,25.8568 83.8555,26.2798 82.7705,26.2798 C81.5235,26.2798 80.5585,25.7218 79.9585,24.8988 L79.9585,28.5858 C80.6225,28.8308 81.3585,28.9708 82.1725,28.9708 C83.3455,28.9708 84.4655,28.6428 85.3335,27.9498" id="Fill-42" fill="#FFFFFF"></path>
                    </g>
                </g>
            </g>
        </g>
    </g>
</svg>