<?xml version="1.0" encoding="utf-8"?>
<!-- Generator: Adobe Illustrator 16.0.0, SVG Export Plug-In . SVG Version: 6.00 Build 0)  -->
<!DOCTYPE svg PUBLIC "-//W3C//DTD SVG 1.1//EN" "http://www.w3.org/Graphics/SVG/1.1/DTD/svg11.dtd">
<svg version="1.1" id="Layer_1" xmlns="http://www.w3.org/2000/svg" xmlns:xlink="http://www.w3.org/1999/xlink" x="0px" y="0px"
	 width="437.863px" height="143px" viewBox="0 0 437.863 143" enable-background="new 0 0 437.863 143" xml:space="preserve">
<g>
	<g>
		<g>
			<path fill="#3180BE" d="M48.04,55.703c-4.769-5.049-9.172-6.424-13.664-6.424c-13.384,0-22.28,10.273-22.28,23.201
				c0,13.844,8.896,24.108,22.28,24.108c5.23,0,10.265-2.38,14.579-7.884l9.538,6.786c-5.873,8.069-14.675,11.554-24.204,11.554
				C14.298,107.044,0,93.475,0,73.209c0-20.811,14.298-34.38,34.289-34.38c8.802,0,16.317,2.845,22.73,10.27L48.04,55.703z"/>
			<path fill="#3180BE" d="M72.555,67.533h0.18c1.736-3.672,6.137-7.243,12.929-7.243c11.821,0,16.041,8.342,16.041,17.322v27.783
				h-11V83.114c0-4.858-0.368-12.929-8.066-12.929c-7.25,0-10.083,5.323-10.083,11.184v24.027H61.542V36.081h11.013V67.533z"/>
			<path fill="#3180BE" d="M115.53,87.241c0.738,6.503,5.686,10.451,11.823,10.451c5.506,0,9.084-2.571,11.832-5.963l7.888,5.963
				c-5.14,6.322-11.644,8.807-18.614,8.807c-13.296,0-23.929-9.267-23.929-23.11c0-13.846,10.633-23.099,23.929-23.099
				c12.285,0,20.635,8.611,20.635,23.93v3.021H115.53z M138.082,78.986c-0.086-6.416-4.298-10.449-11.182-10.449
				c-6.514,0-10.547,4.125-11.37,10.449H138.082z"/>
			<path fill="#3180BE" d="M183.918,74.591c-2.566-2.656-5.409-4.406-8.347-4.406c-8.062,0-12.928,6.329-12.928,13.205
				c0,6.876,4.865,13.2,12.928,13.2c3.392,0,6.516-1.468,8.528-4.122l7.338,7.886c-4.494,4.493-12.013,6.146-15.866,6.146
				c-13.285,0-23.93-9.267-23.93-23.11c0-13.846,10.645-23.099,23.93-23.099c5.602,0,11.739,2.009,15.961,6.685L183.918,74.591z"/>
			<path fill="#3180BE" d="M194.298,36.081H205.3v43.552l16.96-18.249h14.118l-18.887,19.985l20.078,24.027h-14.575L205.488,82.93
				H205.3v22.465h-11.002V36.081z"/>
			<path fill="#3180BE" d="M242.203,87.241c0.727,6.503,5.685,10.451,11.825,10.451c5.494,0,9.074-2.571,11.822-5.963l7.885,5.963
				c-5.129,6.322-11.634,8.807-18.611,8.807c-13.3,0-23.932-9.267-23.932-23.11c0-13.846,10.632-23.099,23.932-23.099
				c12.294,0,20.634,8.611,20.634,23.93v3.021H242.203z M264.756,78.986c-0.086-6.416-4.317-10.449-11.193-10.449
				c-6.505,0-10.537,4.125-11.359,10.449H264.756z"/>
			<path fill="#3180BE" d="M315.844,98.791h-0.18c-3.21,5.317-8.99,7.708-15.128,7.708c-13.579,0-21.739-10.092-21.739-23.11
				c0-13.02,8.717-23.099,21.277-23.099c8.254,0,12.654,3.842,14.949,6.685h0.273V36.081h11.001v69.314h-10.454V98.791z
				 M302.736,96.589c8.065,0,12.928-6.324,12.928-13.2c0-6.875-4.862-13.205-12.928-13.205c-8.074,0-12.938,6.329-12.938,13.205
				C289.798,90.265,294.662,96.589,302.736,96.589z"/>
		</g>
		<path d="M349.141,69.73"/>
		<path fill="#102A59" d="M415.953,60.29c-6.137,0-11.918,2.375-15.128,7.693h-0.18v-6.599h-10.456v64.909h11.014V99.799h0.272
			c2.286,2.84,6.687,6.7,14.94,6.7c12.56,0,21.274-10.092,21.274-23.11C437.69,70.369,429.522,60.29,415.953,60.29z M413.761,96.589
			c-8.072,0-12.936-6.324-12.936-13.2c0-6.875,4.863-13.205,12.936-13.205c8.065,0,12.919,6.329,12.919,13.205
			C426.68,90.265,421.826,96.589,413.761,96.589z"/>
		<g>
			<path fill="#3180BE" d="M379.918,49.109c-1.852,0-3.355-1.496-3.355-3.342v-26.66c0-2.505-0.962-4.855-2.737-6.626
				c-1.303-1.308-1.303-3.422,0-4.732c1.304-1.307,3.428-1.307,4.731,0c3.03,3.034,4.703,7.068,4.703,11.358v26.66
				C383.26,47.613,381.759,49.109,379.918,49.109z"/>
		</g>
		<g>
			<path fill="#3180BE" d="M339.142,49.109c-1.844,0-3.346-1.496-3.346-3.342v-26.66c0-4.286,1.674-8.319,4.714-11.358
				c1.303-1.304,3.428-1.307,4.731-0.005c1.303,1.311,1.303,3.426,0,4.737c-1.775,1.776-2.758,4.129-2.758,6.626v26.66
				C342.483,47.613,340.989,49.109,339.142,49.109z"/>
		</g>
		<path fill="#102A59" d="M349.547,3.479c-1.972-1.973-5.186-1.973-7.158,0.007c-1.065,1.056-1.512,2.478-1.426,3.869l4.714,4.715
			c1.386,0.078,2.803-0.366,3.87-1.432C351.521,8.663,351.521,5.462,349.547,3.479z"/>
		<path fill="#102A59" d="M369.926,3.481c-1.973,1.98-1.973,5.182,0.01,7.157c1.066,1.065,2.483,1.513,3.872,1.432l4.711-4.715
			c0.086-1.391-0.367-2.812-1.423-3.869C375.108,1.506,371.909,1.506,369.926,3.481z"/>
		<g>
			<g>
				<path fill="#FFFFFF" d="M257.87,41.946c-8.052,0-15.124-5.439-17.197-13.228c-2.52-9.485,3.146-19.258,12.632-21.784
					c1.502-0.399,3.045-0.603,4.585-0.603c8.047,0,15.115,5.439,17.187,13.229c2.524,9.486-3.134,19.258-12.611,21.781
					C260.96,41.743,259.413,41.946,257.87,41.946z"/>
				<path fill="#013374" d="M257.889,6.645c7.732,0,14.804,5.169,16.886,12.996c2.484,9.338-3.06,18.915-12.39,21.399
					c-1.509,0.402-3.024,0.594-4.515,0.594c-7.736,0-14.812-5.168-16.896-12.995c-2.481-9.341,3.072-18.915,12.41-21.402
					C254.89,6.836,256.402,6.645,257.889,6.645 M257.89,6.02L257.89,6.02c-1.567,0-3.138,0.206-4.665,0.613
					c-9.651,2.571-15.418,12.515-12.854,22.166c2.109,7.925,9.306,13.459,17.499,13.459c1.57,0,3.144-0.207,4.676-0.615
					c9.644-2.568,15.4-12.511,12.832-22.164C273.27,11.555,266.078,6.02,257.89,6.02L257.89,6.02z"/>
			</g>
			<polyline fill="#99CEEA" points="257.05,24.919 239.834,29.366 243.008,36.604 246.953,38.344 248.361,39.927 257.05,24.919 			
				"/>
			<g>
				<path fill="#3180BE" d="M240.975,28.639c-2.481-9.341,3.072-18.915,12.41-21.402c9.33-2.482,18.907,3.072,21.39,12.404
					c2.484,9.338-3.06,18.915-12.39,21.399C253.047,43.527,243.46,37.974,240.975,28.639z"/>
			</g>
			<polygon fill="#102A59" points="251.836,34.12 248.438,39.972 243.64,34.769 257.768,24.004 			"/>
			<polygon fill="#FFFFFF" points="263.34,13.886 266.36,7.831 271.489,12.735 258.041,24.352 			"/>
			<g>
				<path fill="#102A59" d="M257.889,6.645c7.732,0,14.804,5.169,16.886,12.996c2.484,9.338-3.06,18.915-12.39,21.399
					c-1.509,0.402-3.024,0.594-4.515,0.594c-7.736,0-14.812-5.168-16.896-12.995c-2.481-9.341,3.072-18.915,12.41-21.402
					C254.89,6.836,256.402,6.645,257.889,6.645 M257.89,5.908L257.89,5.908c-1.577,0-3.157,0.208-4.694,0.616
					c-9.711,2.587-15.513,12.592-12.933,22.304c2.123,7.974,9.363,13.543,17.607,13.543c1.58,0,3.163-0.208,4.704-0.619
					c9.704-2.583,15.496-12.588,12.912-22.301C273.365,11.477,266.129,5.908,257.89,5.908L257.89,5.908z"/>
			</g>
			<path fill="#FFFFFF" stroke="#102A59" stroke-width="0.6448" stroke-miterlimit="10" d="M249.588,26.343
				c-1.217-4.576,1.502-9.274,6.083-10.496l0,0c4.569-1.215,9.282,1.509,10.5,6.083l0,0c1.219,4.587-1.511,9.286-6.083,10.499l0,0
				C255.51,33.648,250.814,30.93,249.588,26.343L249.588,26.343z"/>
			<path fill="none" stroke="#FFFFFF" stroke-width="0.5791" stroke-linecap="round" stroke-miterlimit="10" d="M247.284,36.645"/>
		</g>
		<path fill="#102A59" d="M374.08,41.987V81.35c0,6.417-3.483,14.854-14.58,14.854c-11.086,0-14.571-8.437-14.571-14.854V41.987
			h-11.558v39.729c0,14.146,9.196,23.489,21.898,25.184v1.422c0,13.629-11.086,24.714-24.713,24.714
			c-13.638,0-24.723-11.085-24.723-24.714v-45.64h0.018c0-13.227-1.406-21.511-9.064-30.096
			c-7.536-8.441-18.311-12.899-31.172-12.899v8.414c10.537,0,18.914,3.393,24.893,10.089c5.221,5.842,6.826,11.221,6.921,23.421l0,0
			v46.711c0,18.266,14.854,33.125,33.128,33.125c18.262,0,33.127-14.859,33.127-33.125v-1.412
			c12.73-1.679,21.957-11.03,21.957-25.194V41.987H374.08z"/>
		
			<linearGradient id="SVGID_2_" gradientUnits="userSpaceOnUse" x1="561.3408" y1="11579.5068" x2="561.3408" y2="11593.9658" gradientTransform="matrix(-1 0 0 -1 862.9062 11676.6562)">
			<stop  offset="0" style="stop-color:#022759"/>
			<stop  offset="0.0896" style="stop-color:#022759;stop-opacity:0.9104"/>
			<stop  offset="1" style="stop-color:#022759;stop-opacity:0"/>
		</linearGradient>
		<rect x="297.334" y="82.691" opacity="0.38" fill="url(#SVGID_2_)" width="8.461" height="14.459"/>
		<path fill="#3180BE" d="M312.123,102.807V92.705c-2.219,2.406-5.429,3.956-9.425,3.956c-4.589,0-8.13-2.047-10.349-5.077v13.563
			c2.436,0.904,5.146,1.416,8.147,1.416C304.813,106.563,308.93,105.353,312.123,102.807z"/>
	</g>
	<g opacity="0.36">
		<defs>
			<path id="SVGID_120_" opacity="0.36" d="M138.082,78.986c-0.086-6.416-4.298-10.449-11.182-10.449
				c-6.514,0-10.547,4.125-11.37,10.449H138.082z M264.756,78.986c-0.086-6.416-4.317-10.449-11.193-10.449
				c-6.505,0-10.537,4.125-11.359,10.449H264.756z M426.68,83.389c0-6.875-4.854-13.205-12.919-13.205
				c-8.072,0-12.936,6.329-12.936,13.205c0,6.876,4.863,13.2,12.936,13.2C421.826,96.589,426.68,90.265,426.68,83.389z
				 M305.834,70.53v25.724c6.195-1.392,9.83-6.921,9.83-12.865C315.664,77.443,312.029,71.919,305.834,70.53z M289.798,83.389
				c0,5.164,2.747,10.022,7.536,12.117V82.691l0,0h0.095V71.233C292.586,73.308,289.798,78.188,289.798,83.389z"/>
		</defs>
		<clipPath id="SVGID_4_">
			<use xlink:href="#SVGID_120_"  overflow="visible"/>
		</clipPath>
	</g>
</g>
</svg>
