<?xml version="1.0" encoding="utf-8"?>
<!-- Generator: Adobe Illustrator 16.0.0, SVG Export Plug-In . SVG Version: 6.00 Build 0)  -->
<!DOCTYPE svg PUBLIC "-//W3C//DTD SVG 1.1//EN" "http://www.w3.org/Graphics/SVG/1.1/DTD/svg11.dtd">
<svg version="1.1" id="Layer_1" xmlns="http://www.w3.org/2000/svg" xmlns:xlink="http://www.w3.org/1999/xlink" x="0px" y="0px"
	 width="437.863px" height="143px" viewBox="0 0 437.863 143" enable-background="new 0 0 437.863 143" xml:space="preserve">
<g>
	<g>
		<g>
			<path fill="#FFFFFF" d="M47.849,54.981c-4.758-5.046-9.158-6.419-13.648-6.419c-13.359,0-22.252,10.262-22.252,23.17
				c0,13.834,8.893,24.09,22.252,24.09c5.23,0,10.262-2.377,14.562-7.871l9.527,6.769c-5.863,8.065-14.654,11.545-24.172,11.545
				c-19.969,0-34.256-13.557-34.256-33.798c0-20.786,14.287-34.341,34.256-34.341c8.785,0,16.291,2.839,22.701,10.254L47.849,54.981
				z"/>
			<path fill="#FFFFFF" d="M72.33,66.796h0.188c1.74-3.667,6.135-7.233,12.918-7.233c11.807,0,16.023,8.332,16.023,17.302v27.746
				H90.466V82.362c0-4.86-0.363-12.909-8.053-12.909c-7.244,0-10.084,5.312-10.084,11.161v23.997h-10.98v-69.24h10.98V66.796z"/>
			<path fill="#FFFFFF" d="M115.265,86.486c0.736,6.496,5.682,10.443,11.818,10.443c5.49,0,9.064-2.574,11.807-5.968l7.875,5.968
				c-5.127,6.308-11.625,8.787-18.584,8.787c-13.281,0-23.906-9.261-23.906-23.081c0-13.825,10.625-23.072,23.906-23.072
				c12.273,0,20.605,8.602,20.605,23.899v3.024H115.265z M137.791,78.234c-0.086-6.409-4.295-10.439-11.166-10.439
				c-6.51,0-10.535,4.125-11.359,10.439H137.791z"/>
			<path fill="#FFFFFF" d="M183.58,73.844c-2.568-2.661-5.414-4.391-8.34-4.391c-8.059,0-12.91,6.313-12.91,13.182
				c0,6.871,4.852,13.188,12.91,13.188c3.385,0,6.512-1.468,8.521-4.119l7.324,7.875c-4.49,4.483-11.996,6.137-15.846,6.137
				c-13.279,0-23.898-9.261-23.898-23.081c0-13.825,10.619-23.072,23.898-23.072c5.584,0,11.729,2.004,15.941,6.681L183.58,73.844z"
				/>
			<path fill="#FFFFFF" d="M193.943,35.371h10.99v43.511l16.941-18.23h14.105l-18.869,19.962l20.057,23.997h-14.559L205.121,82.18
				h-0.188v22.432h-10.99V35.371z"/>
			<path fill="#FFFFFF" d="M241.787,86.486c0.738,6.496,5.686,10.443,11.812,10.443c5.498,0,9.064-2.574,11.82-5.968l7.875,5.968
				c-5.125,6.308-11.635,8.787-18.596,8.787c-13.277,0-23.893-9.261-23.893-23.081c0-13.825,10.615-23.072,23.893-23.072
				c12.271,0,20.611,8.602,20.611,23.899v3.024H241.787z M264.314,78.234c-0.078-6.409-4.297-10.439-11.166-10.439
				c-6.502,0-10.535,4.125-11.361,10.439H264.314z"/>
			<path fill="#FFFFFF" d="M315.351,98.015h-0.18c-3.215,5.312-8.973,7.701-15.115,7.701c-13.557,0-21.709-10.075-21.709-23.081
				c0-13.002,8.713-23.072,21.25-23.072c8.246,0,12.639,3.839,14.93,6.681h0.279V35.371h10.986v69.24h-10.441V98.015z
				 M302.259,95.822c8.047,0,12.912-6.317,12.912-13.188c0-6.869-4.865-13.182-12.912-13.182c-8.066,0-12.926,6.313-12.926,13.182
				C289.333,89.505,294.193,95.822,302.259,95.822z"/>
		</g>
		<path fill="#030303" d="M348.623,68.992"/>
		<path fill="#102A59" d="M415.349,59.563c-6.139,0-11.906,2.369-15.107,7.684h-0.188v-6.595h-10.443v64.851h10.996V99.027h0.271
			c2.289,2.84,6.689,6.688,14.93,6.688c12.545,0,21.26-10.075,21.26-23.081C437.068,69.632,428.906,59.563,415.349,59.563z
			 M413.152,95.822c-8.059,0-12.91-6.317-12.91-13.188c0-6.869,4.852-13.182,12.91-13.182c8.066,0,12.912,6.313,12.912,13.182
			C426.064,89.505,421.218,95.822,413.152,95.822z"/>
		<g>
			<path fill="#9CCFEB" d="M379.349,48.392c-1.846,0-3.338-1.493-3.338-3.342V18.428c0-2.504-0.969-4.85-2.75-6.625
				c-1.299-1.301-1.299-3.415,0-4.727c1.309-1.303,3.424-1.303,4.73,0c3.035,3.035,4.701,7.065,4.701,11.352V45.05
				C382.693,46.899,381.193,48.392,379.349,48.392z"/>
		</g>
		<g>
			<path fill="#9CCFEB" d="M338.625,48.392c-1.842,0-3.342-1.493-3.342-3.342V18.428c0-4.279,1.672-8.308,4.701-11.352
				c1.305-1.303,3.424-1.303,4.729,0c1.307,1.312,1.314,3.425,0.008,4.727c-1.781,1.775-2.756,4.125-2.756,6.625V45.05
				C341.964,46.899,340.462,48.392,338.625,48.392z"/>
		</g>
		<path fill="#102A59" d="M349.011,2.814c-1.967-1.966-5.168-1.968-7.148,0.007c-1.055,1.054-1.516,2.482-1.43,3.87l4.709,4.696
			c1.4,0.093,2.807-0.356,3.869-1.413C350.992,7.998,350.992,4.794,349.011,2.814z"/>
		<path fill="#102A59" d="M369.373,2.821c-1.975,1.973-1.975,5.177,0,7.153c1.07,1.056,2.482,1.506,3.875,1.413l4.709-4.696
			c0.078-1.4-0.367-2.816-1.422-3.87C374.554,0.846,371.345,0.848,369.373,2.821z"/>
		<g>
			<g>
				<polyline fill="#9CCFEB" points="256.628,24.236 239.419,28.669 242.597,35.908 246.544,37.636 247.937,39.224 256.628,24.236 
									"/>
			</g>
			<g>
				<g>
					<path fill="#9CCFEB" d="M257.455,41.488c-8.158,0-15.324-5.509-17.426-13.401c-1.242-4.653-0.598-9.506,1.822-13.678
						c2.42-4.166,6.311-7.144,10.967-8.385c1.521-0.402,3.078-0.608,4.637-0.608c8.16,0,15.314,5.508,17.424,13.393
						c2.555,9.616-3.178,19.516-12.773,22.073C260.576,41.286,259.017,41.488,257.455,41.488z"/>
				</g>
			</g>
			<g>
				<polygon fill="#FFFFFF" points="262.908,13.213 265.921,7.157 271.041,12.06 257.613,23.667 				"/>
			</g>
			<path fill="#102A59" d="M277.773,18.041c-2.455-9.197-10.809-15.62-20.312-15.62l0,0c-1.824,0-3.639,0.238-5.412,0.708
				c-5.432,1.448-9.971,4.917-12.789,9.78c-2.816,4.859-3.574,10.525-2.123,15.952c2.447,9.197,10.805,15.624,20.318,15.624
				c1.822,0,3.646-0.238,5.418-0.71C274.07,40.795,280.757,29.25,277.773,18.041z M261.955,40.336c-1.5,0.398-3.016,0.589-4.5,0.589
				c-3.201,0-6.268-0.927-8.934-2.521l2.893-4.988l5.932-10.103l-13.859,10.551c-1.297-1.731-2.32-3.705-2.912-5.922
				c-2.484-9.316,3.064-18.889,12.387-21.372c1.508-0.398,3.016-0.589,4.5-0.589c7.723-0.001,14.785,5.16,16.873,12.977
				C276.818,28.282,271.277,37.854,261.955,40.336z"/>
			<g>
				<path fill="#FFFFFF" d="M249.171,25.657c-1.213-4.568,1.504-9.269,6.078-10.49l0,0c4.572-1.207,9.268,1.509,10.486,6.071l0,0
					c1.221,4.591-1.506,9.28-6.078,10.502l0,0C255.085,32.952,250.39,30.23,249.171,25.657L249.171,25.657z"/>
				<path fill="#102A59" d="M257.455,33.585c-4.58,0-8.607-3.095-9.787-7.526c-1.432-5.395,1.791-10.957,7.188-12.396
					c0.854-0.225,1.723-0.34,2.6-0.34c4.578,0,8.598,3.089,9.781,7.513c1.436,5.402-1.787,10.968-7.176,12.407
					C259.205,33.47,258.33,33.585,257.455,33.585z M257.455,16.438c-0.604,0-1.213,0.079-1.803,0.238
					c-3.732,0.995-5.967,4.846-4.975,8.583c0.82,3.067,3.604,5.212,6.777,5.212c0.602,0,1.211-0.079,1.801-0.236
					c3.738-0.999,5.973-4.855,4.975-8.598C263.41,18.577,260.626,16.438,257.455,16.438z"/>
			</g>
			<g>
				<path fill="none" stroke="#FFFFFF" stroke-width="0.7612" stroke-linecap="round" stroke-miterlimit="10" d="M246.875,35.941"/>
			</g>
		</g>
		<path fill="#102A59" d="M373.521,41.28v39.313c0,6.415-3.48,14.847-14.562,14.847s-14.555-8.432-14.555-14.847V41.28h-11.541
			v39.683c0,14.14,9.186,23.465,21.875,25.159v1.418c0,13.616-11.074,24.683-24.695,24.683c-13.607,0-24.689-11.066-24.689-24.683
			V61.95h0.014c0-13.212-1.4-21.487-9.049-30.056c-7.523-8.436-18.295-12.887-31.15-12.887v8.402
			c10.545,0,18.914,3.392,24.883,10.083c5.211,5.833,6.82,11.203,6.904,23.382h-0.004v46.666c0,18.243,14.848,33.093,33.092,33.093
			s33.094-14.85,33.094-33.093v-1.418c12.717-1.666,21.932-11.01,21.932-25.159V41.28H373.521z"/>
		<path fill="#FFFFFF" d="M311.64,102.033v-10.09c-2.232,2.398-5.434,3.953-9.424,3.953c-4.58,0-8.123-2.047-10.336-5.077v13.552
			c2.443,0.899,5.146,1.413,8.141,1.413C304.333,105.784,308.447,104.579,311.64,102.033z"/>
	</g>
	<g>
		<defs>
			<path id="SVGID_63_" d="M137.791,78.234c-0.086-6.409-4.295-10.439-11.166-10.439c-6.51,0-10.535,4.125-11.359,10.439H137.791z
				 M264.314,78.234c-0.078-6.409-4.297-10.439-11.166-10.439c-6.502,0-10.535,4.125-11.361,10.439H264.314z M426.064,82.635
				c0-6.869-4.846-13.182-12.912-13.182c-8.059,0-12.91,6.313-12.91,13.182c0,6.871,4.852,13.188,12.91,13.188
				C421.218,95.822,426.064,89.505,426.064,82.635z M305.353,69.784v25.698c6.195-1.39,9.818-6.91,9.818-12.847
				S311.548,71.183,305.353,69.784z M289.333,82.635c0,5.157,2.742,10.007,7.529,12.104V81.939l0,0h0.088V70.5
				C292.111,72.563,289.333,77.439,289.333,82.635z"/>
		</defs>
		<clipPath id="SVGID_2_">
			<use xlink:href="#SVGID_63_"  overflow="visible"/>
		</clipPath>
	</g>
</g>
</svg>
