<?xml version="1.0" standalone="no"?>
<!DOCTYPE svg PUBLIC "-//W3C//DTD SVG 1.1//EN" "http://www.w3.org/Graphics/SVG/1.1/DTD/svg11.dtd" >
<svg xmlns="http://www.w3.org/2000/svg" xmlns:xlink="http://www.w3.org/1999/xlink" version="1.1">
<metadata></metadata>
<defs>
<font id="basemonomedium" horiz-adv-x="1228" >
<font-face units-per-em="2048" ascent="1638" descent="-410" />
<missing-glyph horiz-adv-x="500" />
<glyph unicode="&#xfb01;" horiz-adv-x="2457" d="M184 768v195h308v88q0 178 86.5 280.5t238.5 102.5q61 0 119 -10.5t90.5 -21.5t79.5 -30l-37 -164q-36 16 -96.5 29.5t-104.5 13.5q-172 0 -172 -209v-79h410v-195h-410v-610l215 -88v-70h-635v70l216 88v610h-308zM1464 0v195h277v573h-277v195h482v-768h276v-195h-758z M1720 1311q0 51 36 87t87 36t87 -36t36 -87t-36 -86t-87 -35t-87 35t-36 86z" />
<glyph unicode="&#xfb02;" horiz-adv-x="2457" d="M184 768v195h308v88q0 178 86.5 280.5t238.5 102.5q61 0 119 -10.5t90.5 -21.5t79.5 -30l-37 -164q-36 16 -96.5 29.5t-104.5 13.5q-172 0 -172 -209v-79h410v-195h-410v-610l215 -88v-70h-635v70l216 88v610h-308zM1464 0v195h277v1044h-277v195h482v-1239h276v-195 h-758z" />
<glyph horiz-adv-x="0" />
<glyph horiz-adv-x="682" />
<glyph unicode=" " />
<glyph unicode="!" d="M422 1434h303l-90 -1012h-123zM438 115q0 55 40 95t95 40q56 0 96 -40t40 -95t-40 -95t-96 -40q-55 0 -95 40t-40 95z" />
<glyph unicode="&#x22;" d="M248 1434h266l-92 -615h-82zM719 1434h266l-92 -615h-82z" />
<glyph unicode="#" d="M137 674v190h191v189h-191v190h191v191h190v-191h189v191h190v-191h193v-190h-193v-189h193v-190h-193v-193h-190v193h-189v-193h-190v193h-191zM518 864h189v189h-189v-189z" />
<glyph unicode="$" d="M217 987q0 136 85 224t222 112v193h185v-191q152 -23 297 -129l-70 -149q-176 106 -305 106q-94 0 -146.5 -44t-52.5 -103q0 -44 33 -79.5t86 -61t117 -50.5t128 -56t117 -69.5t86 -98t33 -134.5q0 -151 -89.5 -243t-233.5 -118v-182h-185v180q-143 22 -291 121l25 172 q117 -60 198 -89.5t150 -29.5q91 0 151 39t60 123q0 43 -26 77t-68 56t-96 45t-110 43t-110 50.5t-96 66.5t-68 92.5t-26 126.5z" />
<glyph unicode="%" d="M145 1155q0 124 72.5 211.5t175.5 87.5t175.5 -87.5t72.5 -211.5t-72.5 -211.5t-175.5 -87.5t-175.5 87.5t-72.5 211.5zM207 557l751 432l64 -108l-752 -432zM303 1157q0 -57 26.5 -98t63.5 -41t63.5 41t26.5 98q0 55 -26.5 95t-63.5 40t-63.5 -40t-26.5 -95zM588 279 q0 124 72.5 211.5t175.5 87.5t175 -87.5t72 -211.5t-72 -211.5t-175 -87.5t-175.5 87.5t-72.5 211.5zM745 281q0 -57 27 -98.5t64 -41.5t63.5 41.5t26.5 98.5q0 55 -26.5 95t-63.5 40t-64 -40t-27 -95z" />
<glyph unicode="&#x26;" d="M162 428q0 105 46 197t126 155q-68 54 -106 128.5t-38 160.5q0 161 124.5 273t299.5 112q176 0 290 -107t114 -278v-3v-3v-8h-191v1v1v1v1v1v9q0 80 -62 136.5t-151 56.5t-151 -56.5t-62 -136.5t62 -136t151 -56h560v-193h-142v-684h-69l-60 113q-46 -63 -123.5 -98 t-165.5 -35q-123 0 -227 60t-164.5 163t-60.5 225zM375 428q0 -106 69.5 -181t169.5 -75q99 0 156 59.5t57 151.5v301h-213q-100 0 -169.5 -75t-69.5 -181z" />
<glyph unicode="'" d="M471 1434h287l-103 -615h-82z" />
<glyph unicode="(" d="M348 614q0 92 20 182.5t51.5 166.5t80.5 153t97.5 137.5t111.5 124t114 109t113 96.5l102 -129q-70 -62 -124.5 -116t-126 -141t-118.5 -171t-80.5 -193t-33.5 -219t33.5 -219.5t80.5 -193t118.5 -170.5t126 -140.5t124.5 -115.5l-102 -129q-63 51 -113.5 96t-113.5 109 t-111.5 124t-97.5 137t-80.5 153t-51.5 166.5t-20 182.5z" />
<glyph unicode=")" d="M190 -225q71 63 125 116t126 140.5t119 170.5t80.5 192.5t33.5 219.5t-33.5 219.5t-80.5 192.5t-119 170.5t-126.5 141.5t-124.5 116l103 129q62 -51 113 -96.5t114 -109t111.5 -124t97.5 -137.5t80.5 -153t51.5 -166.5t20 -182.5t-20 -182.5t-51.5 -166.5t-80.5 -153 t-97.5 -137t-111.5 -124t-113.5 -109t-113.5 -96z" />
<glyph unicode="*" d="M164 1085l37 105l317 -60l45 324h111l45 -326l319 62l37 -107l-297 -141l158 -289l-90 -63l-228 235l-225 -235l-90 63l156 289z" />
<glyph unicode="+" d="M178 457v194h338v338h195v-338h340v-194h-340v-340h-195v340h-338z" />
<glyph unicode="," d="M373 -307q162 105 168 291q-55 14 -90 57.5t-35 99.5q0 65 46.5 111.5t110.5 46.5q82 0 130.5 -58.5t48.5 -129.5q0 -155 -92 -287.5t-240 -204.5z" />
<glyph unicode="-" d="M256 457v194h717v-194h-717z" />
<glyph unicode="." d="M414 139q0 66 46.5 113t112.5 47q65 0 111.5 -47t46.5 -113t-46.5 -112.5t-111.5 -46.5q-66 0 -112.5 46.5t-46.5 112.5z" />
<glyph unicode="/" d="M137 0l764 1434h195l-764 -1434h-195z" />
<glyph unicode="0" d="M156 717q0 205 51.5 370t157 266t249.5 101q108 0 196.5 -58.5t145 -159.5t87 -234t30.5 -285t-30.5 -285t-87 -234t-145 -159.5t-196.5 -58.5q-144 0 -249.5 101t-157 266t-51.5 370zM373 717q0 -149 27 -268t82.5 -192t131.5 -73t131.5 73t83 192t27.5 268t-27.5 268 t-83 191.5t-131.5 72.5t-131.5 -72.5t-82.5 -191.5t-27 -268z" />
<glyph unicode="1" d="M244 1042l411 412h62v-1259h205v-195h-615v195h205v845l-223 -84z" />
<glyph unicode="2" d="M205 0v74l461 649q75 107 114 183.5t39 137.5q0 85 -60 145t-145 60t-144.5 -60t-59.5 -145v-102h-205v102q0 169 120 289.5t289 120.5t289.5 -120.5t120.5 -289.5q0 -111 -38 -194t-136 -213l-326 -432h500v-205h-819z" />
<glyph unicode="3" d="M106 152l80 155q70 -55 171 -96t184 -41q136 0 223.5 72.5t87.5 181.5t-97 182.5t-235 73.5q-95 0 -184 -29l-49 66l399 522h-524v195h846v-101l-359 -467q184 -31 300 -153t116 -285q0 -191 -141.5 -319.5t-366.5 -128.5q-124 0 -248 50.5t-203 121.5z" />
<glyph unicode="4" d="M82 369v80l684 1005h94v-881h205v-204h-205v-369h-205v369h-573zM375 573h280v420z" />
<glyph unicode="5" d="M106 152l80 155q70 -55 171 -96t184 -41q136 0 223.5 72.5t87.5 181.5q0 112 -86 187t-225 75q-76 0 -145.5 -16.5t-108.5 -32.5l-82 47v750h778v-195h-573v-373q75 11 147 11q225 0 366.5 -129t141.5 -320t-141.5 -319.5t-366.5 -128.5q-124 0 -248 50.5t-203 121.5z " />
<glyph unicode="6" d="M162 428q0 179 160 408l419 598h250l-389 -557h12q123 0 227.5 -60t165 -163.5t60.5 -225.5t-60.5 -225t-165 -163t-227.5 -60t-227 60t-164.5 163t-60.5 225zM375 428q0 -106 69.5 -181t169.5 -75t170 75t70 181t-70 181t-170 75t-169.5 -75t-69.5 -181z" />
<glyph unicode="7" d="M143 1239v195h881v-99l-561 -1335h-217l508 1239h-611z" />
<glyph unicode="8" d="M162 428q0 105 46 197t126 155q-68 54 -106 128.5t-38 160.5q0 161 124.5 273t299.5 112t299.5 -112t124.5 -273q0 -86 -38 -160.5t-105 -128.5q80 -63 126 -155t46 -197q0 -122 -60.5 -225t-165 -163t-227.5 -60t-227 60t-164.5 163t-60.5 225zM375 428 q0 -106 69.5 -181t169.5 -75t170 75t70 181t-70 181t-170 75t-169.5 -75t-69.5 -181zM401 1069q0 -80 62 -136t151 -56t151 56t62 136t-62 136.5t-151 56.5t-151 -56.5t-62 -136.5z" />
<glyph unicode="9" d="M164 1006q0 122 60.5 225t164.5 163t227 60t227.5 -60t165 -163t60.5 -225q0 -105 -47.5 -211t-140.5 -238l-392 -557h-249l389 557h-13q-187 0 -319.5 131.5t-132.5 317.5zM377 1006q0 -106 69.5 -181t169.5 -75t170 75t70 181t-70 181t-170 75t-169.5 -75t-69.5 -181z " />
<glyph unicode=":" d="M414 139q0 66 46.5 113t112.5 47q65 0 111.5 -47t46.5 -113t-46.5 -112.5t-111.5 -46.5q-66 0 -112.5 46.5t-46.5 112.5zM414 782q0 66 46.5 113t112.5 47q65 0 111.5 -47t46.5 -113t-46.5 -112.5t-111.5 -46.5q-66 0 -112.5 46.5t-46.5 112.5z" />
<glyph unicode=";" d="M373 -307q162 105 168 291q-55 14 -90 57.5t-35 99.5q0 65 46.5 111.5t110.5 46.5q82 0 130.5 -58.5t48.5 -129.5q0 -155 -92 -287.5t-240 -204.5zM414 782q0 66 46.5 113t112.5 47q65 0 111.5 -47t46.5 -113t-46.5 -112.5t-111.5 -46.5q-66 0 -112.5 46.5t-46.5 112.5z " />
<glyph unicode="&#x3c;" d="M184 655l830 680l59 -57l-510 -623l510 -622l-59 -60z" />
<glyph unicode="=" d="M256 268v195h717v-195h-717zM256 645v195h717v-195h-717z" />
<glyph unicode="&#x3e;" d="M156 33l510 622l-510 623l59 57l829 -680l-829 -682z" />
<glyph unicode="?" d="M209 942v102q0 169 120 289.5t289 120.5t289.5 -120.5t120.5 -289.5q0 -64 -16.5 -119t-51 -101.5t-63 -76t-76.5 -71.5l-346 -303l-88 102l283 287q85 87 119 150.5t34 131.5q0 85 -60 145t-145 60t-144.5 -60t-59.5 -145v-102h-205zM401 115q0 55 40 95t96 40 q55 0 95 -40t40 -95t-40 -95t-95 -40q-56 0 -96 40t-40 95z" />
<glyph unicode="@" d="M61 668q0 209 84 387.5t228 283.5t313 105q212 0 353 -163.5t141 -424.5q0 -122 -28.5 -227.5t-74.5 -174.5t-103 -108t-114 -39q-92 0 -133 78q-32 -35 -72.5 -56.5t-79.5 -21.5q-116 0 -175.5 121.5t-37.5 296.5t111.5 296.5t204.5 121.5q41 0 78 -25t63 -65l53 80h60 l-76 -603q-14 -110 43 -110q41 0 81.5 59.5t66.5 158t26 202.5q0 205 -105 323.5t-255 118.5q-131 0 -242 -86t-173 -226t-62 -298q0 -247 115.5 -394t301.5 -147q61 0 112 12t94.5 37.5t71 46.5t66.5 56l56 -111q-210 -184 -420 -184q-117 0 -222.5 52t-182.5 141.5 t-122 216.5t-45 270zM542 553.5q13 -75.5 48 -76.5q35 -2 68.5 63.5t50.5 180.5q19 117 6.5 183.5t-49.5 68.5q-23 1 -47.5 -32t-44.5 -89t-31 -123q-14 -100 -1 -175.5z" />
<glyph unicode="A" d="M164 0v905q0 255 128.5 402t321.5 147q93 0 175 -37t143.5 -105t97 -173t35.5 -234v-905h-205v492h-491v-492h-205zM369 686h491v219q0 164 -70 254t-176 90t-175.5 -90t-69.5 -254v-219z" />
<glyph unicode="B" d="M164 0v1434h469q155 0 266 -111t111 -266q0 -145 -101 -254q91 -59 144 -156t53 -209q0 -119 -58.5 -220t-159.5 -159.5t-220 -58.5h-504zM369 195h278q101 0 172.5 71t71.5 172t-71.5 172.5t-172.5 71.5h-278v-487zM369 877h245q75 0 129 52.5t54 127.5t-54 128.5 t-129 53.5h-245v-362z" />
<glyph unicode="C" d="M145 717q0 152 36 285t103 234t170.5 159.5t231.5 58.5q185 0 308.5 -117t123.5 -313h-196q-9 109 -76 167t-160 58q-103 0 -177.5 -72.5t-110.5 -191.5t-36 -268t36 -268t110.5 -192t177.5 -73q107 0 170.5 54t81.5 192h192q0 -197 -125.5 -323.5t-318.5 -126.5 q-128 0 -231.5 58.5t-170.5 159.5t-103 234t-36 285z" />
<glyph unicode="D" d="M164 0v1434h352q145 0 262 -56t191.5 -154t114.5 -227.5t40 -279.5t-40 -279.5t-114.5 -227.5t-191.5 -154t-262 -56h-352zM369 195h163q98 0 171.5 40t117 112.5t65 165t21.5 204.5t-21.5 204.5t-65 165t-117 112.5t-171.5 40h-163v-1044z" />
<glyph unicode="E" d="M184 0v1434h901v-195h-696v-362h492v-195h-492v-487h696v-195h-901z" />
<glyph unicode="F" d="M225 0v1434h860v-195h-655v-362h655v-195h-655v-682h-205z" />
<glyph unicode="G" d="M104 717q0 152 36 285t103 234t170.5 159.5t231.5 58.5q185 0 308.5 -117t123.5 -313h-196q-9 109 -76 167t-160 58q-103 0 -177.5 -72.5t-110 -191t-35.5 -268.5t35.5 -268.5t110 -191.5t177.5 -73q90 0 149.5 37t86.5 129v193h-215v194h419v-737h-69l-60 111 q-116 -131 -311 -131q-128 0 -231.5 58.5t-170.5 159.5t-103 234t-36 285z" />
<glyph unicode="H" d="M164 0v1434h205v-557h491v557h205v-1434h-205v682h-491v-682h-205z" />
<glyph unicode="I" d="M297 0v195h215v1044h-215v195h635v-195h-215v-1044h215v-195h-635z" />
<glyph unicode="J" d="M123 41l43 166q99 -37 219 -37q95 0 141.5 48.5t46.5 152.5v868h-215v195h635v-195h-215v-877q0 -180 -89.5 -281t-258.5 -101q-139 0 -307 61z" />
<glyph unicode="K" d="M164 0v1434h205v-668l561 668h258l-594 -703l614 -731h-258l-581 696v-696h-205z" />
<glyph unicode="L" d="M266 0v1434h205v-1239h696v-195h-901z" />
<glyph unicode="M" d="M164 0v1434h127l323 -723l324 723h127v-1434h-184v862l-246 -549h-41l-246 549v-862h-184z" />
<glyph unicode="N" d="M164 0v1434h153l564 -973v973h184v-1434h-154l-563 973v-973h-184z" />
<glyph unicode="O" d="M104 717q0 152 34 285t97 234t160.5 159.5t218.5 58.5t218.5 -58.5t160.5 -159.5t97 -234t34 -285t-34 -285t-97 -234t-160.5 -159.5t-218.5 -58.5t-218.5 58.5t-160.5 159.5t-97 234t-34 285zM322 717q0 -149 33 -268.5t100.5 -192t158.5 -72.5t158.5 72.5t101 192 t33.5 268.5q0 148 -33.5 267.5t-101 192t-158.5 72.5t-158.5 -72.5t-100.5 -191.5t-33 -268z" />
<glyph unicode="P" d="M164 0v1434h444q129 0 239 -64.5t174 -174.5t64 -239q0 -196 -140.5 -336.5t-336.5 -140.5h-239v-479h-205zM369 674h229q114 0 193 81t79 201t-79 201.5t-193 81.5h-229v-565z" />
<glyph unicode="Q" d="M104 717q0 152 34 285t97 234t160.5 159.5t218.5 58.5t218.5 -58.5t160.5 -159.5t97 -234t34 -285q0 -180 -45.5 -330.5t-137 -256t-218.5 -138.5q0 -127 46.5 -176t131.5 -49q38 0 90 22t84 49l49 -157q-121 -91 -254 -91q-165 0 -258.5 102t-93.5 298 q-131 29 -225.5 134t-141.5 257.5t-47 335.5zM322 717q0 -149 33 -268.5t100.5 -192t158.5 -72.5t158.5 72.5t101 192t33.5 268.5q0 148 -33.5 267.5t-101 192t-158.5 72.5t-158.5 -72.5t-100.5 -191.5t-33 -268z" />
<glyph unicode="R" d="M164 0v1434h434q129 0 239 -64.5t174 -174.5t64 -239q0 -125 -62 -233t-165 -172l317 -551h-237l-279 481q-16 -2 -51 -2h-229v-479h-205zM369 674h219q114 0 193 81t79 201t-79 201.5t-193 81.5h-219v-565z" />
<glyph unicode="S" d="M145 418h205q0 -55 18.5 -99t48 -71.5t68 -46t75.5 -26t73 -7.5q108 0 179 52t71 153q0 47 -24.5 85.5t-66 66t-95.5 52.5t-113.5 49t-119.5 51t-114 62.5t-95.5 79.5t-66 107t-24.5 139q0 166 127 277.5t307 111.5q91 0 173 -25t148.5 -73.5t106 -129t39.5 -182.5h-205 q0 58 -24.5 102.5t-64.5 69.5t-84 37.5t-89 12.5q-99 0 -164 -52.5t-65 -132.5q0 -43 24.5 -79.5t66 -64t95.5 -53.5t113.5 -52t119 -54.5t113.5 -65.5t95.5 -81.5t66 -106.5t24.5 -135q0 -127 -63.5 -221.5t-165.5 -141t-225 -46.5q-74 0 -141.5 13.5t-132 46.5t-111 82 t-75 125t-28.5 171z" />
<glyph unicode="T" d="M82 1239v195h1065v-195h-430v-1239h-205v1239h-430z" />
<glyph unicode="U" d="M164 528v906h205v-906q0 -164 69.5 -254t175.5 -90t176 90t70 254v906h205v-906q0 -129 -35.5 -233.5t-97 -173t-143 -105t-175.5 -36.5t-175.5 36.5t-142.5 105t-96.5 173t-35.5 233.5z" />
<glyph unicode="V" d="M61 1434h222l331 -940l332 940h221l-518 -1454h-69z" />
<glyph unicode="W" d="M-20 1434h200l189 -879l147 625l-65 254h200l209 -879l189 879h200l-334 -1454h-90l-211 819l-211 -819h-90z" />
<glyph unicode="X" d="M68 0l428 733l-408 701h238l288 -496l289 496h238l-408 -699l428 -735h-237l-310 530l-309 -530h-237z" />
<glyph unicode="Y" d="M45 1434h236l333 -607l334 607h236l-467 -840v-594h-205v594z" />
<glyph unicode="Z" d="M133 0l631 1239h-625v195h955l-633 -1239h629v-195h-957z" />
<glyph unicode="[" d="M369 -328v1864h491v-205h-287v-1454h287v-205h-491z" />
<glyph unicode="\" d="M137 1434h195l764 -1434h-195z" />
<glyph unicode="]" d="M369 -123h286v1454h-286v205h491v-1864h-491v205z" />
<glyph unicode="^" d="M145 913l428 541h86l426 -541l-67 -67l-402 307l-403 -307z" />
<glyph unicode="_" d="M0 0h1231v-164h-1231v164z" />
<glyph unicode="`" d="M326 1440l172 172l376 -492l-57 -57z" />
<glyph unicode="a" d="M104 481q0 137 62 252.5t169.5 182.5t235.5 67q101 0 191 -44t156 -122l77 146h70v-963h-70l-77 145q-66 -78 -156 -121.5t-191 -43.5q-195 0 -331 146t-136 355zM317 481q0 -128 79 -218.5t192 -90.5q114 0 193 90.5t79 218.5t-79 219t-193 91q-113 0 -192 -91t-79 -219 z" />
<glyph unicode="b" d="M164 0v1434h205v-560q128 109 288 109q128 0 235.5 -67t169.5 -182.5t62 -252.5q0 -209 -136 -355t-331 -146q-101 0 -190.5 43.5t-155.5 121.5l-78 -145h-69zM369 481q0 -128 79 -218.5t193 -90.5q113 0 191.5 90.5t78.5 218.5t-78.5 219t-191.5 91q-114 0 -193 -91 t-79 -219z" />
<glyph unicode="c" d="M129 481q0 103 40 196t109.5 160t168 106.5t210.5 39.5q128 0 244 -50.5t209 -141.5l-96 -144q-164 144 -340 144q-138 0 -235 -89t-97 -221t97 -220.5t235 -88.5q96 0 177 36t163 107l94 -143q-195 -192 -451 -192q-150 0 -271.5 67t-189 181.5t-67.5 252.5z" />
<glyph unicode="d" d="M104 481q0 137 62 252.5t169.5 182.5t235.5 67q161 0 289 -109v560h205v-1434h-70l-77 145q-66 -78 -156 -121.5t-191 -43.5q-195 0 -331 146t-136 355zM317 481q0 -128 79 -218.5t192 -90.5q114 0 193 90.5t79 218.5t-79 219t-193 91q-113 0 -192 -91t-79 -219z" />
<glyph unicode="e" d="M111 481q0 104 39 196t107 159.5t166 107t210 39.5q101 0 193.5 -40.5t155.5 -111.5q64 -71 90 -167q12 -44 12 -92q0 -55 -17 -115h-743q0 -125 98 -205t233 -80q200 0 338 133l97 -133q-195 -192 -451 -192q-150 0 -271.5 67t-189 181.5t-67.5 252.5zM360 627h504 q-6 45 -31 78t-60.5 51t-72 26.5t-73.5 8.5q-196 0 -267 -164z" />
<glyph unicode="f" d="M184 768v195h308v88q0 178 86.5 280.5t238.5 102.5q61 0 119 -10.5t90.5 -21.5t79.5 -30l-37 -164q-36 16 -96.5 29.5t-104.5 13.5q-172 0 -172 -209v-79h410v-195h-410v-610l215 -88v-70h-635v70l216 88v610h-308z" />
<glyph unicode="g" d="M104 481q0 137 62 252.5t169.5 182.5t235.5 67q101 0 191 -44t156 -122l77 146h70v-920q0 -221 -130.5 -347t-330.5 -126q-191 0 -393 154l78 141q163 -113 325 -113q106 0 176 70.5t70 202.5v63q-127 -108 -289 -108q-195 0 -331 146t-136 355zM317 481 q0 -128 79 -218.5t192 -90.5q114 0 193 90.5t79 218.5t-79 219t-193 91q-113 0 -192 -91t-79 -219z" />
<glyph unicode="h" d="M164 0v1434h205v-549q54 45 122 71.5t136 26.5q162 0 269.5 -125.5t107.5 -333.5v-346l204 -108v-70h-409v518q0 125 -58.5 195.5t-146.5 70.5q-87 0 -156 -66.5t-69 -158.5v-559h-205z" />
<glyph unicode="i" d="M236 0v195h276v573h-276v195h481v-768h276v-195h-757zM492 1311q0 51 35.5 87t86.5 36t87 -36t36 -87t-36 -86t-87 -35t-86.5 35t-35.5 86z" />
<glyph unicode="j" d="M158 -365l32 170q39 -19 107.5 -34t118.5 -15q97 0 145.5 56.5t48.5 177.5v778h-368v195h573v-983q0 -190 -93 -300t-255 -110q-150 0 -309 65zM590 1311q0 51 36 87t87 36t87 -36t36 -87t-36 -86t-87 -35t-87 35t-36 86z" />
<glyph unicode="k" d="M205 0v1434h205v-953l481 482h266l-461 -461l502 -502h-287l-358 358h-143v-358h-205z" />
<glyph unicode="l" d="M236 0v195h276v1044h-276v195h481v-1239h276v-195h-757z" />
<glyph unicode="m" d="M121 0v963h67l52 -97q37 53 90.5 85t115.5 32q124 0 197 -102q81 102 197 102q115 0 189.5 -92.5t74.5 -245.5v-645h-197v647q0 62 -28.5 98.5t-69.5 36.5t-69.5 -33.5t-28.5 -80.5v-668h-197v647q0 62 -28.5 98.5t-69.5 36.5t-70 -33.5t-29 -80.5v-668h-196z" />
<glyph unicode="n" d="M164 0v963h69l78 -142q51 72 138.5 117t177.5 45q162 0 269.5 -125.5t107.5 -333.5v-346l204 -108v-70h-409v518q0 125 -58.5 195.5t-146.5 70.5q-87 0 -156 -66.5t-69 -158.5v-559h-205z" />
<glyph unicode="o" d="M104 481q0 209 149 355.5t361 146.5t361 -146.5t149 -355.5t-149 -355t-361 -146t-361 146t-149 355zM317 481q0 -128 86.5 -218.5t210.5 -90.5t210.5 90.5t86.5 218.5t-86.5 219t-210.5 91t-210.5 -91t-86.5 -219z" />
<glyph unicode="p" d="M164 -430v1393h69l78 -146q66 78 155.5 122t190.5 44q128 0 235.5 -67t169.5 -182.5t62 -252.5q0 -209 -136 -355t-331 -146q-161 0 -288 108v-518h-205zM369 481q0 -128 79 -218.5t193 -90.5q113 0 191.5 90.5t78.5 218.5t-78.5 219t-191.5 91q-114 0 -193 -91t-79 -219 z" />
<glyph unicode="q" d="M104 481q0 137 62 252.5t169.5 182.5t235.5 67q101 0 191 -44t156 -122l77 146h70v-1393h-205v518q-127 -108 -289 -108q-195 0 -331 146t-136 355zM317 481q0 -128 79 -218.5t192 -90.5q114 0 193 90.5t79 218.5t-79 219t-193 91q-113 0 -192 -91t-79 -219z" />
<glyph unicode="r" d="M164 0v70l205 108v606l-205 109v70h409v-97q54 54 129 85.5t150 31.5q48 0 145 -25v-419h-69l-131 245q-87 0 -155.5 -66.5t-68.5 -158.5v-381l205 -108v-70h-614z" />
<glyph unicode="s" d="M203 694q0 129 109.5 211t281.5 82q196 0 418 -123l-74 -155q-205 94 -344 94q-160 0 -160 -84q0 -31 33 -56t86.5 -43.5t117.5 -38t128 -44.5t117.5 -56.5t86.5 -81.5t33 -112q0 -146 -117 -229t-298 -83q-194 0 -404 111l27 178q232 -102 387 -102q172 0 172 98 q0 33 -33 58t-86 43t-117 35.5t-128 41.5t-117 55.5t-86 83t-33 117.5z" />
<glyph unicode="t" d="M205 768v195h205v348h204v-348h328v-195h-328v-401q0 -209 172 -209q44 0 104.5 13.5t96.5 29.5l37 -164q-47 -19 -79.5 -30t-90.5 -21.5t-119 -10.5q-152 0 -238.5 102.5t-86.5 280.5v410h-205z" />
<glyph unicode="u" d="M20 893v70h410v-519q0 -125 58.5 -195.5t146.5 -70.5q87 0 156 66.5t69 158.5v560h205v-963h-70l-77 141q-51 -72 -138 -116.5t-178 -44.5q-162 0 -269.5 125t-107.5 333v346z" />
<glyph unicode="v" d="M80 963h233l301 -609l301 609h234l-500 -983h-69z" />
<glyph unicode="w" d="M-14 963h200l193 -541l135 381l-57 160h200l193 -541l192 541h201l-358 -983h-70l-201 548q0 1 -50 -136l-100 -274l-50 -138h-70z" />
<glyph unicode="x" d="M88 0l393 496l-368 467h264l233 -301l234 301h264l-371 -465l396 -498h-265l-258 332l-258 -332h-264z" />
<glyph unicode="y" d="M80 963h233l301 -609l301 609h234l-705 -1393h-229l287 563z" />
<glyph unicode="z" d="M195 0l481 768h-475v195h835l-481 -768h473v-195h-833z" />
<glyph unicode="{" d="M225 614l301 248q0 135 38 254t101 204t129 143.5t138 99.5l102 -129q-51 -32 -89 -64t-78.5 -84t-65.5 -114.5t-41.5 -153.5t-16.5 -203l-241 -201l241 -200q0 -112 16.5 -203t41.5 -153.5t65.5 -114.5t78.5 -84t89 -64l-102 -129q-59 34 -112 76.5t-108.5 106.5 t-95 137.5t-65 172.5t-25.5 208z" />
<glyph unicode="|" d="M512 -410v1844h205v-1844h-205z" />
<glyph unicode="}" d="M195 -205q51 32 89 64t78 84t65.5 114.5t41.5 153.5t16 203l242 200l-242 201q0 138 -22.5 243.5t-66.5 176t-90 114.5t-111 85l102 129q56 -32 109 -74t108.5 -106t95.5 -138.5t66 -174t26 -208.5l302 -248l-302 -247q0 -109 -25.5 -208t-65 -172.5t-94.5 -137.5 t-108 -106.5t-112 -76.5z" />
<glyph unicode="~" d="M193 352q0 175 67.5 279t159.5 104q39 0 92.5 -25t97.5 -55t95 -55t86 -25q39 0 62.5 37.5t43.5 118.5h141q0 -186 -67 -286.5t-172 -100.5q-44 0 -116.5 41t-142 82t-104.5 41q-33 0 -59.5 -43t-42.5 -113h-141z" />
<glyph unicode="&#xa0;" />
<glyph unicode="&#xa1;" d="M422 -389l90 1012h123l90 -1012h-303zM438 930q0 56 40 95.5t95 39.5q56 0 96 -40t40 -95t-40 -95t-96 -40q-55 0 -95 39.5t-40 95.5z" />
<glyph unicode="&#xa2;" d="M129 715q0 186 121 324t311 169v308h184v-306q205 -30 365 -186l-96 -143q-163 143 -340 143q-138 0 -235 -88.5t-97 -220.5t97 -220.5t235 -88.5q96 0 177 36t163 107l94 -143q-161 -158 -363 -187v-305h-184v307q-190 31 -311 169.5t-121 324.5z" />
<glyph unicode="&#xa3;" d="M184 0v195h226v368h-226v195h226v293q0 178 86.5 280.5t238.5 102.5q61 0 119 -10.5t90.5 -21.5t79.5 -30l-37 -164q-36 16 -96.5 29.5t-104.5 13.5q-172 0 -172 -209v-284h328v-195h-328v-368h492v-195h-922z" />
<glyph unicode="&#xa4;" d="M41 121l219 219q-59 100 -59 215t59 215l-219 219l139 139l219 -219q102 60 215 60t215 -60l220 219l139 -139l-219 -219q59 -100 59 -215t-59 -215l200 -201l-139 -139l-201 201q-102 -60 -215 -60t-215 60l-219 -219zM397 555q0 -89 64 -153t153 -64t153 64t64 153 t-64 153t-153 64t-153 -64t-64 -153z" />
<glyph unicode="&#xa5;" d="M45 1434h236l333 -607l334 607h236l-461 -830h250v-184h-256v-420h-205v420h-256v184h250z" />
<glyph unicode="&#xa6;" d="M512 369h205v-779h-205v779zM512 676v758h205v-758h-205z" />
<glyph unicode="&#xa7;" d="M203 694q0 78 43 141.5t119 100.5q-162 83 -162 225q0 129 109.5 211t281.5 82q196 0 418 -123l-74 -155q-205 94 -344 94q-160 0 -160 -84q0 -31 33 -56t86.5 -43.5t117.5 -38t128 -44.5t117.5 -56.5t86.5 -81.5t33 -112q0 -84 -40.5 -148.5t-114.5 -103.5 q155 -83 155 -215q0 -146 -117 -229t-298 -83q-194 0 -404 111l27 178q232 -102 387 -102q172 0 172 98q0 33 -33 58t-86 43t-117 35.5t-128 41.5t-117 55.5t-86 83t-33 117.5zM434 719q0 -61 141 -107q40 -4 56 -4q77 0 124.5 32.5t47.5 86.5q0 44 -58 74q-80 22 -151 22 q-79 0 -119.5 -29.5t-40.5 -74.5z" />
<glyph unicode="&#xa8;" d="M287 1188q0 51 36 87t87 36t86.5 -36t35.5 -87t-35.5 -87t-86.5 -36t-87 36t-36 87zM696 1188q0 51 36 87t87 36t87 -36t36 -87t-36 -87t-87 -36t-87 36t-36 87z" />
<glyph unicode="&#xa9;" d="M113 481q0 136 67 251.5t182.5 183t251.5 67.5t251.5 -67.5t183 -183t67.5 -251.5t-67.5 -251.5t-183 -182.5t-251.5 -67q-102 0 -194.5 40t-159.5 107t-107 159.5t-40 194.5zM240 481q0 -155 109.5 -265t264.5 -110t265 110t110 265t-110 265t-265 110t-264.5 -110 t-109.5 -265zM375 481q0 112 71.5 192.5t182.5 80.5q62 0 119 -34t86 -91l-86 -76q-52 57 -111 57q-44 0 -73 -36t-29 -93q0 -55 29.5 -90t72.5 -35q64 0 111 60l86 -74q-35 -62 -89.5 -95.5t-115.5 -33.5q-112 0 -183 77.5t-71 190.5z" />
<glyph unicode="&#xaa;" d="M190 1030q0 175 123.5 299.5t298.5 124.5q166 0 291 -115l55 97h60v-809h-60l-55 94q-123 -113 -291 -113q-174 0 -298 124t-124 298zM393 1030q0 -91 63.5 -155t155.5 -64q91 0 156.5 64.5t65.5 154.5q0 92 -65.5 157.5t-156.5 65.5q-92 0 -155.5 -65t-63.5 -158z" />
<glyph unicode="&#xab;" d="M113 655l637 633l65 -53l-397 -580l397 -581l-65 -54zM563 655l488 564l59 -45l-272 -519l272 -518l-59 -49z" />
<glyph unicode="&#xac;" d="M215 457v194h717v-409h-195v215h-522z" />
<glyph unicode="&#xad;" d="M256 457v194h717v-194h-717z" />
<glyph unicode="&#xae;" d="M113 481q0 136 67 251.5t182.5 183t251.5 67.5t251.5 -67.5t183 -183t67.5 -251.5t-67.5 -251.5t-183 -182.5t-251.5 -67q-102 0 -194.5 40t-159.5 107t-107 159.5t-40 194.5zM240 481q0 -155 109.5 -265t264.5 -110t265 110t110 265t-110 265t-265 110t-264.5 -110 t-109.5 -265zM438 231v512h199q81 0 136.5 -56t55.5 -136q0 -51 -25 -95t-67 -71l123 -154h-164l-100 125h-33v-125h-125zM563 485h78q26 0 45 19t19 47q0 26 -19 44.5t-45 18.5h-78v-129z" />
<glyph unicode="&#xaf;" d="M313 1065v205h615v-205h-615z" />
<glyph unicode="&#xb0;" d="M276 1116q0 140 99 239t239 99t239 -99t99 -239t-99 -239t-239 -99t-239 99t-99 239zM469 1116q0 -60 42.5 -102.5t102.5 -42.5t103 42.5t43 102.5t-43 103t-103 43t-102.5 -43t-42.5 -103z" />
<glyph unicode="&#xb1;" d="M205 0v195h819v-195h-819zM205 573v195h311v256h195v-256h313v-195h-313v-245h-195v245h-311z" />
<glyph unicode="&#xb2;" d="M319 664v127l246 303q6 8 16.5 21t15 19t11.5 15.5t10 15.5t6.5 13.5t5 14t1.5 13.5q0 35 -24.5 59.5t-57.5 24.5h-180v144h227q97 0 164 -66.5t67 -161.5q0 -89 -67 -162l-213 -229h280v-151h-508z" />
<glyph unicode="&#xb3;" d="M373 670v145h198q37 0 60.5 23.5t23.5 58.5q0 33 -24 58.5t-60 25.5h-159v141h159q36 0 60 25t24 59q0 36 -24 60t-60 24h-198v144h231q94 0 162 -66.5t68 -161.5q0 -86 -64 -153q64 -67 64 -156q0 -93 -68 -160t-162 -67h-231z" />
<glyph unicode="&#xb4;" d="M322 1122l376 492l172 -172l-491 -377z" />
<glyph unicode="&#xb5;" d="M20 893v70h410v-519q0 -125 58.5 -195.5t146.5 -70.5q87 0 156 66.5t69 158.5v560h205v-963h-70l-77 141q-51 -72 -138 -116.5t-178 -44.5q-93 0 -172 45v-435h-205v1194z" />
<glyph unicode="&#xb6;" d="M125 1139q0 122 86 208.5t209 86.5h696v-195h-143v-1239h-195v1239h-164v-1239h-194v844q-123 0 -209 86.5t-86 208.5z" />
<glyph unicode="&#xb7;" d="M465 555q0 62 44 106t105 44q62 0 106 -44.5t44 -105.5t-44 -105t-106 -44t-105.5 44t-43.5 105z" />
<glyph unicode="&#xb8;" d="M236 -477q0 -1 22.5 27t45.5 56l22 29q77 -65 188 -65q62 0 108 29.5t46 70.5t-46 72t-108 31h-35l56 358h184l-68 -209q89 -33 143 -100.5t54 -151.5q0 -115 -97 -195.5t-235 -80.5q-88 0 -161.5 34.5t-118.5 94.5z" />
<glyph unicode="&#xb9;" d="M291 1151l305 303h74v-618h151v-152h-485v152h151v315l-165 -64z" />
<glyph unicode="&#xba;" d="M190 1030q0 175 123.5 299.5t298.5 124.5t299.5 -124.5t124.5 -299.5q0 -173 -124.5 -297.5t-299.5 -124.5q-174 0 -298 124t-124 298zM393 1030q0 -91 63.5 -155t155.5 -64q91 0 156.5 64.5t65.5 154.5q0 92 -65.5 157.5t-156.5 65.5q-92 0 -155.5 -65t-63.5 -158z" />
<glyph unicode="&#xbb;" d="M119 137l272 518l-272 519l59 45l488 -564l-488 -567zM414 74l397 581l-397 580l65 53l637 -633l-637 -635z" />
<glyph unicode="&#xbc;" d="M98 1149l303 303h76v-504h154v-129h-486v129h150v201l-166 -64zM260 526l686 396l47 -84l-684 -396zM524 137v56l363 481h100v-424h137v-113h-137v-137h-164v137h-299zM696 250h127v170z" />
<glyph unicode="&#xbd;" d="M96 1149l305 305h76v-506h152v-127h-486v127h150v201l-164 -64zM240 547l686 395l49 -84l-686 -395zM621 0v78l241 205q70 59 70 116q0 35 -24.5 59.5t-59.5 24.5h-156v144h207q95 0 161 -66.5t66 -161.5q0 -39 -32 -87t-84 -79l-125 -79h241v-154h-505z" />
<glyph unicode="&#xbe;" d="M168 743v134h180q31 0 53.5 21.5t22.5 51.5q0 29 -22.5 51.5t-53.5 22.5h-143v129h143q31 0 53.5 22.5t22.5 53.5t-22.5 52.5t-53.5 21.5h-180v131h209q85 0 146 -60t61 -145q0 -78 -58 -139q58 -58 58 -140q0 -85 -61 -146t-146 -61h-209zM260 526l684 396l49 -84 l-686 -396zM528 137v56l363 479h98v-424h137v-111h-137v-137h-162v137h-299zM698 248h129v172z" />
<glyph unicode="&#xbf;" d="M197 -12q0 64 16.5 119t50.5 101.5t63 76t76 71.5l347 303l88 -102l-283 -287q-85 -87 -119.5 -150.5t-34.5 -131.5q0 -85 60 -145t145 -60t145 60t60 145v102h205v-102q0 -169 -120.5 -289.5t-289.5 -120.5t-289 120.5t-120 289.5zM553 930q0 56 39.5 95.5t95.5 39.5 t95.5 -39.5t39.5 -95.5t-39.5 -95.5t-95.5 -39.5t-95.5 39.5t-39.5 95.5z" />
<glyph unicode="&#xc0;" d="M164 0v905q0 255 128.5 402t321.5 147q93 0 175 -37t143.5 -105t97 -173t35.5 -234v-905h-205v492h-491v-492h-205zM269 1911l172 172l376 -492l-57 -57zM369 686h491v219q0 164 -70 254t-176 90t-175.5 -90t-69.5 -254v-219z" />
<glyph unicode="&#xc1;" d="M164 0v905q0 255 128.5 402t321.5 147q93 0 175 -37t143.5 -105t97 -173t35.5 -234v-905h-205v492h-491v-492h-205zM369 686h491v219q0 164 -70 254t-176 90t-175.5 -90t-69.5 -254v-219zM441 1593l376 492l172 -172l-491 -377z" />
<glyph unicode="&#xc2;" d="M164 0v905q0 255 128.5 402t321.5 147q93 0 175 -37t143.5 -105t97 -173t35.5 -234v-905h-205v492h-491v-492h-205zM219 1591l357 451h71l357 -451l-58 -57l-334 256l-335 -256zM369 686h491v219q0 164 -70 254t-176 90t-175.5 -90t-69.5 -254v-219z" />
<glyph unicode="&#xc3;" d="M164 0v905q0 255 128.5 402t321.5 147q93 0 175 -37t143.5 -105t97 -173t35.5 -234v-905h-205v492h-491v-492h-205zM221 1536q0 176 60 292t141 116q39 0 92.5 -27t97.5 -59t95 -59t86 -27q95 0 127 194h92q0 -192 -59 -303t-152 -111q-35 0 -88.5 28t-100 61.5 t-96.5 61.5t-78 28q-39 0 -75 -58t-50 -137h-92zM369 686h491v219q0 164 -70 254t-176 90t-175.5 -90t-69.5 -254v-219z" />
<glyph unicode="&#xc4;" d="M164 0v905q0 255 128.5 402t321.5 147q93 0 175 -37t143.5 -105t97 -173t35.5 -234v-905h-205v492h-491v-492h-205zM285 1659q0 51 36 87t87 36t86.5 -36t35.5 -87t-35.5 -87t-86.5 -36t-87 36t-36 87zM369 686h491v219q0 164 -70 254t-176 90t-175.5 -90t-69.5 -254 v-219zM694 1659q0 51 36 87t87 36t87 -36t36 -87t-36 -87t-87 -36t-87 36t-36 87z" />
<glyph unicode="&#xc5;" d="M164 0v905q0 255 128.5 402t321.5 147q93 0 175 -37t143.5 -105t97 -173t35.5 -234v-905h-205v492h-491v-492h-205zM305 1843q0 127 89.5 217t217.5 90t218 -90t90 -217t-90 -217t-218 -90t-217.5 90t-89.5 217zM369 686h491v219q0 164 -70 254t-176 90t-175.5 -90 t-69.5 -254v-219zM477 1843q0 -55 39.5 -95t95.5 -40t96 40t40 95t-40 95t-96 40t-95.5 -40t-39.5 -95z" />
<glyph unicode="&#xc6;" horiz-adv-x="2457" d="M164 0v905q0 255 128.5 402t321.5 147q93 0 175 -37t143.5 -105t97 -173t35.5 -234v-905h-205v492h-491v-492h-205zM369 686h491v219q0 164 -70 254t-176 90t-175.5 -90t-69.5 -254v-219zM1413 0v1434h901v-195h-696v-362h491v-195h-491v-487h696v-195h-901z" />
<glyph unicode="&#xc7;" d="M145 717q0 152 36 285t103 234t170.5 159.5t231.5 58.5q185 0 308.5 -117t123.5 -313h-196q-9 109 -76 167t-160 58q-103 0 -177.5 -72.5t-110.5 -191.5t-36 -268t36 -268t110.5 -192t177.5 -73q107 0 170.5 54t81.5 192h192q0 -188 -113.5 -312t-293.5 -136l-35 -109 q80 -30 129 -91t49 -136q0 -117 -73.5 -182.5t-202.5 -65.5q-67 0 -143 34t-134 81l66 102q41 -28 97.5 -50t96.5 -22q67 0 98 30t31 73q0 37 -41 64.5t-96 27.5h-30l38 254q-136 32 -234 137t-146 256t-48 332z" />
<glyph unicode="&#xc8;" d="M184 0v1434h901v-195h-696v-362h492v-195h-492v-487h696v-195h-901zM238 1911l172 172l376 -492l-57 -57z" />
<glyph unicode="&#xc9;" d="M184 0v1434h901v-195h-696v-362h492v-195h-492v-487h696v-195h-901zM445 1593l376 492l172 -172l-491 -377z" />
<glyph unicode="&#xca;" d="M184 0v1434h901v-195h-696v-362h492v-195h-492v-487h696v-195h-901zM219 1591l356 451h72l357 -451l-58 -57l-334 256l-336 -256z" />
<glyph unicode="&#xcb;" d="M184 0v1434h901v-195h-696v-362h492v-195h-492v-487h696v-195h-901zM283 1659q0 51 36 87t87 36t86.5 -36t35.5 -87t-35.5 -87t-86.5 -36t-87 36t-36 87zM692 1659q0 51 36 87t87 36t87 -36t36 -87t-36 -87t-87 -36t-87 36t-36 87z" />
<glyph unicode="&#xcc;" d="M256 1911l172 172l377 -492l-57 -57zM297 0v195h215v1044h-215v195h635v-195h-215v-1044h215v-195h-635z" />
<glyph unicode="&#xcd;" d="M297 0v195h215v1044h-215v195h635v-195h-215v-1044h215v-195h-635zM453 1593l376 492l172 -172l-491 -377z" />
<glyph unicode="&#xce;" d="M221 1591l357 451h71l357 -451l-58 -57l-334 256l-335 -256zM297 0v195h215v1044h-215v195h635v-195h-215v-1044h215v-195h-635z" />
<glyph unicode="&#xcf;" d="M287 1659q0 51 36 87t87 36t86.5 -36t35.5 -87t-35.5 -87t-86.5 -36t-87 36t-36 87zM297 0v195h215v1044h-215v195h635v-195h-215v-1044h215v-195h-635zM696 1659q0 51 36 87t87 36t87 -36t36 -87t-36 -87t-87 -36t-87 36t-36 87z" />
<glyph unicode="&#xd0;" d="M0 647v184h164v603h352q145 0 262 -56t191.5 -154t114.5 -227.5t40 -279.5t-40 -279.5t-114.5 -227.5t-191.5 -154t-262 -56h-352v647h-164zM369 195h170q94 0 164.5 40t112.5 112.5t62.5 165t20.5 204.5t-20.5 204.5t-62.5 165t-112.5 112.5t-164.5 40h-170v-408h239 v-184h-239v-452z" />
<glyph unicode="&#xd1;" d="M164 0v1434h153l564 -973v973h184v-1434h-154l-563 973v-973h-184zM217 1536q0 176 60 292t141 116q39 0 92.5 -27t97.5 -59.5t95 -59.5t86 -27q95 0 127 195h92q0 -192 -59 -303t-152 -111q-35 0 -88.5 28t-100 61.5t-96.5 61.5t-78 28q-39 0 -75 -58t-50 -137h-92z" />
<glyph unicode="&#xd2;" d="M104 717q0 152 34 285t97 234t160.5 159.5t218.5 58.5t218.5 -58.5t160.5 -159.5t97 -234t34 -285t-34 -285t-97 -234t-160.5 -159.5t-218.5 -58.5t-218.5 58.5t-160.5 159.5t-97 234t-34 285zM240 1911l172 172l376 -492l-57 -57zM322 717q0 -149 33 -268.5t100.5 -192 t158.5 -72.5t158.5 72.5t101 192t33.5 268.5q0 148 -33.5 267.5t-101 192t-158.5 72.5t-158.5 -72.5t-100.5 -191.5t-33 -268z" />
<glyph unicode="&#xd3;" d="M104 717q0 152 34 285t97 234t160.5 159.5t218.5 58.5t218.5 -58.5t160.5 -159.5t97 -234t34 -285t-34 -285t-97 -234t-160.5 -159.5t-218.5 -58.5t-218.5 58.5t-160.5 159.5t-97 234t-34 285zM322 717q0 -149 33 -268.5t100.5 -192t158.5 -72.5t158.5 72.5t101 192 t33.5 268.5q0 148 -33.5 267.5t-101 192t-158.5 72.5t-158.5 -72.5t-100.5 -191.5t-33 -268zM453 1593l376 492l172 -172l-491 -377z" />
<glyph unicode="&#xd4;" d="M104 717q0 152 34 285t97 234t160.5 159.5t218.5 58.5t218.5 -58.5t160.5 -159.5t97 -234t34 -285t-34 -285t-97 -234t-160.5 -159.5t-218.5 -58.5t-218.5 58.5t-160.5 159.5t-97 234t-34 285zM219 1591l356 451h72l357 -451l-58 -57l-334 256l-336 -256zM322 717 q0 -149 33 -268.5t100.5 -192t158.5 -72.5t158.5 72.5t101 192t33.5 268.5q0 148 -33.5 267.5t-101 192t-158.5 72.5t-158.5 -72.5t-100.5 -191.5t-33 -268z" />
<glyph unicode="&#xd5;" d="M104 717q0 152 34 285t97 234t160.5 159.5t218.5 58.5t218.5 -58.5t160.5 -159.5t97 -234t34 -285t-34 -285t-97 -234t-160.5 -159.5t-218.5 -58.5t-218.5 58.5t-160.5 159.5t-97 234t-34 285zM221 1536q0 176 60 292t141 116q39 0 92.5 -27t97.5 -59.5t95 -59.5t86 -27 q95 0 127 195h92q0 -192 -59 -303t-152 -111q-35 0 -88.5 28t-100 61.5t-96.5 61.5t-78 28q-39 0 -75 -58t-50 -137h-92zM322 717q0 -149 33 -268.5t100.5 -192t158.5 -72.5t158.5 72.5t101 192t33.5 268.5q0 148 -33.5 267.5t-101 192t-158.5 72.5t-158.5 -72.5 t-100.5 -191.5t-33 -268z" />
<glyph unicode="&#xd6;" d="M104 717q0 152 34 285t97 234t160.5 159.5t218.5 58.5t218.5 -58.5t160.5 -159.5t97 -234t34 -285t-34 -285t-97 -234t-160.5 -159.5t-218.5 -58.5t-218.5 58.5t-160.5 159.5t-97 234t-34 285zM289 1659q0 51 36 87t87 36t86.5 -36t35.5 -87t-35.5 -87t-86.5 -36t-87 36 t-36 87zM322 717q0 -149 33 -268.5t100.5 -192t158.5 -72.5t158.5 72.5t101 192t33.5 268.5q0 148 -33.5 267.5t-101 192t-158.5 72.5t-158.5 -72.5t-100.5 -191.5t-33 -268zM698 1659q0 51 36 87t87 36t87 -36t36 -87t-36 -87t-87 -36t-87 36t-36 87z" />
<glyph unicode="&#xd7;" d="M195 274l280 281l-280 279l137 139l280 -281l281 281l139 -137l-282 -281l282 -283l-139 -137l-281 283l-280 -281z" />
<glyph unicode="&#xd8;" d="M104 717q0 152 34 285t97 234t160.5 159.5t218.5 58.5q144 0 252 -82l76 144l154 -82q-103 -195 -105 -195q133 -204 133 -522q0 -152 -34 -285t-97 -234t-160.5 -159.5t-218.5 -58.5q-139 0 -249 77l-74 -139l-154 82l103 190q-136 204 -136 527zM322 717 q0 -169 40 -293l404 760q-65 65 -152 65q-91 0 -158.5 -72.5t-100.5 -191.5t-33 -268zM465 246q65 -62 149 -62q91 0 158.5 72.5t101 192t33.5 268.5q0 159 -39 287q-403 -756 -403 -758z" />
<glyph unicode="&#xd9;" d="M164 528v906h205v-906q0 -164 69.5 -254t175.5 -90t176 90t70 254v906h205v-906q0 -129 -35.5 -233.5t-97 -173t-143 -105t-175.5 -36.5t-175.5 36.5t-142.5 105t-96.5 173t-35.5 233.5zM203 1913l172 172l376 -492l-57 -57z" />
<glyph unicode="&#xda;" d="M164 528v906h205v-906q0 -164 69.5 -254t175.5 -90t176 90t70 254v906h205v-906q0 -129 -35.5 -233.5t-97 -173t-143 -105t-175.5 -36.5t-175.5 36.5t-142.5 105t-96.5 173t-35.5 233.5zM463 1593l376 492l172 -172l-491 -377z" />
<glyph unicode="&#xdb;" d="M164 528v906h205v-906q0 -164 69.5 -254t175.5 -90t176 90t70 254v906h205v-906q0 -129 -35.5 -233.5t-97 -173t-143 -105t-175.5 -36.5t-175.5 36.5t-142.5 105t-96.5 173t-35.5 233.5zM219 1591l356 451h72l357 -451l-58 -57l-334 256l-336 -256z" />
<glyph unicode="&#xdc;" d="M164 528v906h205v-906q0 -164 69.5 -254t175.5 -90t176 90t70 254v906h205v-906q0 -129 -35.5 -233.5t-97 -173t-143 -105t-175.5 -36.5t-175.5 36.5t-142.5 105t-96.5 173t-35.5 233.5zM289 1659q0 51 36 87t87 36t87 -36t36 -87t-36 -87t-87 -36t-87 36t-36 87z M698 1659q0 51 36 87t87 36t87 -36t36 -87t-36 -87t-87 -36t-87 36t-36 87z" />
<glyph unicode="&#xdd;" d="M45 1434h236l333 -607l334 607h236l-467 -840v-594h-205v594zM457 1595l376 492l172 -172l-491 -377z" />
<glyph unicode="&#xde;" d="M195 0v1434h204v-201h209q196 0 336.5 -140.5t140.5 -336.5t-140.5 -336.5t-336.5 -140.5h-209v-279h-204zM399 473h199q114 0 193 81.5t79 201.5t-79 201t-193 81h-199v-565z" />
<glyph unicode="&#xdf;" d="M164 0v1065q0 182 104 285.5t275 103.5q82 0 150.5 -28t113 -74.5t69.5 -105t25 -120.5q0 -61 -21.5 -112t-52.5 -85t-61.5 -64t-52 -64.5t-21.5 -71.5q0 -29 24.5 -54.5t63 -46t85.5 -42t94.5 -50t86 -62.5t63 -86t24.5 -116q0 -131 -96 -211.5t-234 -80.5 q-66 0 -157.5 33t-151.5 81l18 180q170 -100 289 -100q54 0 92.5 22.5t38.5 75.5q0 35 -24.5 62t-63 46t-85.5 37.5t-94 42t-85.5 52.5t-63 75.5t-24.5 106.5q0 59 21 109t51 85.5t60 69.5t51 77t21 91q0 58 -43 99t-110 41q-83 0 -128.5 -54t-45.5 -147v-1065h-205z" />
<glyph unicode="&#xe0;" d="M104 481q0 137 62 252.5t169.5 182.5t235.5 67q101 0 191 -44t156 -122l77 146h70v-963h-70l-77 145q-66 -78 -156 -121.5t-191 -43.5q-195 0 -331 146t-136 355zM227 1440l172 172l377 -492l-57 -57zM317 481q0 -128 79 -218.5t192 -90.5q114 0 193 90.5t79 218.5 t-79 219t-193 91q-113 0 -192 -91t-79 -219z" />
<glyph unicode="&#xe1;" d="M104 481q0 137 62 252.5t169.5 182.5t235.5 67q101 0 191 -44t156 -122l77 146h70v-963h-70l-77 145q-66 -78 -156 -121.5t-191 -43.5q-195 0 -331 146t-136 355zM317 481q0 -128 79 -218.5t192 -90.5q114 0 193 90.5t79 218.5t-79 219t-193 91q-113 0 -192 -91t-79 -219 zM474 1122l376 492l172 -172l-491 -377z" />
<glyph unicode="&#xe2;" d="M104 481q0 137 62 252.5t169.5 182.5t235.5 67q101 0 191 -44t156 -122l77 146h70v-963h-70l-77 145q-66 -78 -156 -121.5t-191 -43.5q-195 0 -331 146t-136 355zM219 1120l357 451h71l357 -451l-58 -57l-334 256l-335 -256zM317 481q0 -128 79 -218.5t192 -90.5 q114 0 193 90.5t79 218.5t-79 219t-193 91q-113 0 -192 -91t-79 -219z" />
<glyph unicode="&#xe3;" d="M104 481q0 137 62 252.5t169.5 182.5t235.5 67q101 0 191 -44t156 -122l77 146h70v-963h-70l-77 145q-66 -78 -156 -121.5t-191 -43.5q-195 0 -331 146t-136 355zM215 1065q0 176 60 292t141 116q39 0 92.5 -27t97.5 -59.5t95 -59.5t86 -27q95 0 127 195h92 q0 -192 -59 -303t-152 -111q-35 0 -88.5 28t-100 61.5t-96.5 61.5t-78 28q-39 0 -75 -58t-50 -137h-92zM317 481q0 -128 79 -218.5t192 -90.5q114 0 193 90.5t79 218.5t-79 219t-193 91q-113 0 -192 -91t-79 -219z" />
<glyph unicode="&#xe4;" d="M104 481q0 137 62 252.5t169.5 182.5t235.5 67q101 0 191 -44t156 -122l77 146h70v-963h-70l-77 145q-66 -78 -156 -121.5t-191 -43.5q-195 0 -331 146t-136 355zM289 1188q0 51 36 87t87 36t87 -36t36 -87t-36 -87t-87 -36t-87 36t-36 87zM317 481q0 -128 79 -218.5 t192 -90.5q114 0 193 90.5t79 218.5t-79 219t-193 91q-113 0 -192 -91t-79 -219zM698 1188q0 51 36 87t87 36t87 -36t36 -87t-36 -87t-87 -36t-87 36t-36 87z" />
<glyph unicode="&#xe5;" d="M104 481q0 137 62 252.5t169.5 182.5t235.5 67q101 0 191 -44t156 -122l77 146h70v-963h-70l-77 145q-66 -78 -156 -121.5t-191 -43.5q-195 0 -331 146t-136 355zM305 1372q0 128 89.5 217.5t217.5 89.5t218 -90t90 -217t-90 -217t-218 -90t-217.5 89.5t-89.5 217.5z M317 481q0 -128 79 -218.5t192 -90.5q114 0 193 90.5t79 218.5t-79 219t-193 91q-113 0 -192 -91t-79 -219zM477 1372q0 -56 39.5 -95.5t95.5 -39.5t96 40t40 95t-40 95t-96 40t-95.5 -39.5t-39.5 -95.5z" />
<glyph unicode="&#xe6;" horiz-adv-x="2457" d="M104 481q0 137 62 252.5t169.5 182.5t235.5 67q101 0 191 -44t156 -122l77 146h70v-963h-70l-77 145q-66 -78 -156 -121.5t-191 -43.5q-195 0 -331 146t-136 355zM317 481q0 -128 79 -218.5t192 -90.5q114 0 193 90.5t79 218.5t-79 219t-193 91q-113 0 -192 -91t-79 -219 zM1339 481q0 212 148.5 357t374.5 145q101 0 193.5 -40.5t155.5 -111.5t89.5 -167t-4.5 -207h-744q0 -125 98.5 -205t233.5 -80q200 0 338 133l96 -133q-195 -192 -450 -192q-150 0 -271.5 67t-189.5 181.5t-68 252.5zM1589 627h504q-8 58 -49.5 97t-89.5 53t-99 14 q-195 0 -266 -164z" />
<glyph unicode="&#xe7;" d="M129 481q0 103 40 196t109.5 160t168 106.5t210.5 39.5q128 0 244 -50.5t209 -141.5l-96 -144q-164 144 -340 144q-138 0 -235 -89t-97 -221t97 -220.5t235 -88.5q96 0 177 36t163 107l94 -143q-174 -170 -395 -190l-35 -109q80 -30 129 -91t49 -136q0 -117 -73.5 -182.5 t-202.5 -65.5q-67 0 -143 34t-134 81l66 102q41 -28 97.5 -50t96.5 -22q67 0 98 30t31 73q0 37 -41 64.5t-96 27.5h-31l37 250q-190 31 -311 169t-121 324z" />
<glyph unicode="&#xe8;" d="M111 481q0 104 39 196t107 159.5t166 107t210 39.5q101 0 193.5 -40.5t155.5 -111.5t89.5 -167t-4.5 -207h-743q0 -125 98 -205t233 -80q200 0 338 133l97 -133q-195 -192 -451 -192q-150 0 -271.5 67t-189 181.5t-67.5 252.5zM231 1440l172 172l377 -492l-57 -57z M360 627h504q-6 45 -31 78t-60.5 51t-72 26.5t-73.5 8.5q-196 0 -267 -164z" />
<glyph unicode="&#xe9;" d="M111 481q0 104 39 196t107 159.5t166 107t210 39.5q101 0 193.5 -40.5t155.5 -111.5t89.5 -167t-4.5 -207h-743q0 -125 98 -205t233 -80q200 0 338 133l97 -133q-195 -192 -451 -192q-150 0 -271.5 67t-189 181.5t-67.5 252.5zM360 627h504q-6 45 -31 78t-60.5 51 t-72 26.5t-73.5 8.5q-196 0 -267 -164zM453 1122l376 492l172 -172l-491 -377z" />
<glyph unicode="&#xea;" d="M111 481q0 104 39 196t107 159.5t166 107t210 39.5q101 0 193.5 -40.5t155.5 -111.5t89.5 -167t-4.5 -207h-743q0 -125 98 -205t233 -80q200 0 338 133l97 -133q-195 -192 -451 -192q-150 0 -271.5 67t-189 181.5t-67.5 252.5zM219 1120l357 451h71l357 -451l-58 -57 l-334 256l-335 -256zM360 627h504q-6 45 -31 78t-60.5 51t-72 26.5t-73.5 8.5q-196 0 -267 -164z" />
<glyph unicode="&#xeb;" d="M111 481q0 104 39 196t107 159.5t166 107t210 39.5q101 0 193.5 -40.5t155.5 -111.5t89.5 -167t-4.5 -207h-743q0 -125 98 -205t233 -80q200 0 338 133l97 -133q-195 -192 -451 -192q-150 0 -271.5 67t-189 181.5t-67.5 252.5zM285 1188q0 51 36 87t87 36t86.5 -36 t35.5 -87t-35.5 -87t-86.5 -36t-87 36t-36 87zM360 627h504q-6 45 -31 78t-60.5 51t-72 26.5t-73.5 8.5q-196 0 -267 -164zM694 1188q0 51 36 87t87 36t87 -36t36 -87t-36 -87t-87 -36t-87 36t-36 87z" />
<glyph unicode="&#xec;" d="M178 1440l172 172l377 -492l-57 -57zM236 0v195h276v573h-276v195h481v-768h276v-195h-757z" />
<glyph unicode="&#xed;" d="M236 0v195h276v573h-276v195h481v-768h276v-195h-757zM375 1122l376 492l172 -172l-491 -377z" />
<glyph unicode="&#xee;" d="M188 1120l357 451h71l357 -451l-58 -57l-334 256l-335 -256zM236 0v195h276v573h-276v195h481v-768h276v-195h-757z" />
<glyph unicode="&#xef;" d="M236 0v195h276v573h-276v195h481v-768h276v-195h-757zM242 1188q0 51 36 87t87 36t86.5 -36t35.5 -87t-35.5 -87t-86.5 -36t-87 36t-36 87zM651 1188q0 51 36 87t87 36t87 -36t36 -87t-36 -87t-87 -36t-87 36t-36 87z" />
<glyph unicode="&#xf0;" d="M162 428q0 186 132.5 317.5t319.5 131.5h13l-129 184l-205 -117l-86 139l196 113l-165 238h249l95 -136l192 113l86 -139l-184 -107l231 -329q160 -229 160 -408q0 -122 -60.5 -225t-165 -163t-227.5 -60t-227 60t-164.5 163t-60.5 225zM375 428q0 -106 69.5 -181 t169.5 -75t170 75t70 181t-70 181t-170 75t-169.5 -75t-69.5 -181z" />
<glyph unicode="&#xf1;" d="M164 0v963h69l78 -142q51 72 138.5 117t177.5 45q162 0 269.5 -125.5t107.5 -333.5v-346l204 -108v-70h-409v518q0 125 -58.5 195.5t-146.5 70.5q-87 0 -156 -66.5t-69 -158.5v-559h-205zM196 1065q0 176 60 292t141 116q39 0 92.5 -27t97.5 -59.5t95 -59.5t86 -27 q95 0 127 195h92q0 -192 -59 -303t-152 -111q-35 0 -88.5 28t-100 61.5t-96.5 61.5t-78 28q-39 0 -75 -58t-50 -137h-92z" />
<glyph unicode="&#xf2;" d="M104 481q0 209 149 355.5t361 146.5t361 -146.5t149 -355.5t-149 -355t-361 -146t-361 146t-149 355zM240 1440l172 172l376 -492l-57 -57zM317 481q0 -128 86.5 -218.5t210.5 -90.5t210.5 90.5t86.5 218.5t-86.5 219t-210.5 91t-210.5 -91t-86.5 -219z" />
<glyph unicode="&#xf3;" d="M104 481q0 209 149 355.5t361 146.5t361 -146.5t149 -355.5t-149 -355t-361 -146t-361 146t-149 355zM317 481q0 -128 86.5 -218.5t210.5 -90.5t210.5 90.5t86.5 218.5t-86.5 219t-210.5 91t-210.5 -91t-86.5 -219zM435 1122l376 492l172 -172l-491 -377z" />
<glyph unicode="&#xf4;" d="M104 481q0 209 149 355.5t361 146.5t361 -146.5t149 -355.5t-149 -355t-361 -146t-361 146t-149 355zM219 1120l357 451h71l357 -451l-58 -57l-334 256l-335 -256zM317 481q0 -128 86.5 -218.5t210.5 -90.5t210.5 90.5t86.5 218.5t-86.5 219t-210.5 91t-210.5 -91 t-86.5 -219z" />
<glyph unicode="&#xf5;" d="M104 481q0 209 149 355.5t361 146.5t361 -146.5t149 -355.5t-149 -355t-361 -146t-361 146t-149 355zM209 1065q0 176 60 292t141 116q39 0 92.5 -27t97.5 -59.5t95 -59.5t86 -27q95 0 127 195h92q0 -192 -59 -303t-152 -111q-35 0 -88.5 28t-100 61.5t-96.5 61.5t-78 28 q-39 0 -75 -58t-50 -137h-92zM317 481q0 -128 86.5 -218.5t210.5 -90.5t210.5 90.5t86.5 218.5t-86.5 219t-210.5 91t-210.5 -91t-86.5 -219z" />
<glyph unicode="&#xf6;" d="M104 481q0 209 149 355.5t361 146.5t361 -146.5t149 -355.5t-149 -355t-361 -146t-361 146t-149 355zM285 1188q0 51 36 87t87 36t86.5 -36t35.5 -87t-35.5 -87t-86.5 -36t-87 36t-36 87zM317 481q0 -128 86.5 -218.5t210.5 -90.5t210.5 90.5t86.5 218.5t-86.5 219 t-210.5 91t-210.5 -91t-86.5 -219zM694 1188q0 51 36 87t87 36t87 -36t36 -87t-36 -87t-87 -36t-87 36t-36 87z" />
<glyph unicode="&#xf7;" d="M215 457v194h799v-194h-799zM492 207q0 51 35.5 87t86.5 36t87 -36t36 -87t-36 -87t-87 -36t-86.5 36t-35.5 87zM492 901q0 51 35.5 87t86.5 36t87 -36t36 -87t-36 -87t-87 -36t-86.5 36t-35.5 87z" />
<glyph unicode="&#xf8;" d="M61 143q7 6 18.5 15t36 28t40.5 31.5t16 11.5q-68 117 -68 252q0 209 149 355.5t361 146.5q197 0 342 -129l109 88l102 -123l-110 -88q67 -112 67 -250q0 -209 -149 -355t-361 -146q-197 0 -342 129l-108 -89zM317 481q0 -55 23 -116l455 362q-80 64 -181 64 q-124 0 -210.5 -91t-86.5 -219zM434 236q80 -64 180 -64q124 0 210.5 90.5t86.5 218.5q0 59 -22 117z" />
<glyph unicode="&#xf9;" d="M20 893v70h410v-519q0 -125 58.5 -195.5t146.5 -70.5q87 0 156 66.5t69 158.5v560h205v-963h-70l-77 141q-51 -72 -138 -116.5t-178 -44.5q-162 0 -269.5 125t-107.5 333v346zM236 1440l172 172l376 -492l-57 -57z" />
<glyph unicode="&#xfa;" d="M20 893v70h410v-519q0 -125 58.5 -195.5t146.5 -70.5q87 0 156 66.5t69 158.5v560h205v-963h-70l-77 141q-51 -72 -138 -116.5t-178 -44.5q-162 0 -269.5 125t-107.5 333v346zM435 1122l376 492l172 -172l-491 -377z" />
<glyph unicode="&#xfb;" d="M20 893v70h410v-519q0 -125 58.5 -195.5t146.5 -70.5q87 0 156 66.5t69 158.5v560h205v-963h-70l-77 141q-51 -72 -138 -116.5t-178 -44.5q-162 0 -269.5 125t-107.5 333v346zM219 1120l357 451h71l357 -451l-58 -57l-334 256l-335 -256z" />
<glyph unicode="&#xfc;" d="M20 893v70h410v-519q0 -125 58.5 -195.5t146.5 -70.5q87 0 156 66.5t69 158.5v560h205v-963h-70l-77 141q-51 -72 -138 -116.5t-178 -44.5q-162 0 -269.5 125t-107.5 333v346zM293 1188q0 51 36 87t87 36t87 -36t36 -87t-36 -87t-87 -36t-87 36t-36 87zM702 1188 q0 51 36 87t87 36t87 -36t36 -87t-36 -87t-87 -36t-87 36t-36 87z" />
<glyph unicode="&#xfd;" d="M80 963h233l301 -609l301 609h234l-705 -1393h-229l287 563zM483 1122l377 492l172 -172l-491 -377z" />
<glyph unicode="&#xfe;" d="M162 1434h205v-562q127 111 290 111q128 0 235.5 -67t169.5 -182.5t62 -252.5q0 -209 -136 -355t-331 -146q-161 0 -288 108v-518h-205zM369 481q0 -128 79 -218.5t193 -90.5q113 0 191.5 90.5t78.5 218.5t-78.5 219t-191.5 91q-114 0 -193 -91t-79 -219z" />
<glyph unicode="&#xff;" d="M80 963h233l301 -609l301 609h234l-705 -1393h-229l287 563zM285 1188q0 51 36 87t87 36t86.5 -36t35.5 -87t-35.5 -87t-86.5 -36t-87 36t-36 87zM694 1188q0 51 36 87t87 36t87 -36t36 -87t-36 -87t-87 -36t-87 36t-36 87z" />
<glyph unicode="&#x152;" horiz-adv-x="2457" d="M104 717q0 152 34 285t97 234t160.5 159.5t218.5 58.5t218.5 -58.5t160.5 -159.5t97 -234t34 -285t-34 -285t-97 -234t-160.5 -159.5t-218.5 -58.5t-218.5 58.5t-160.5 159.5t-97 234t-34 285zM322 717q0 -149 33 -268.5t100.5 -192t158.5 -72.5t158.5 72.5t101 192 t33.5 268.5q0 148 -33.5 267.5t-101 192t-158.5 72.5t-158.5 -72.5t-100.5 -191.5t-33 -268zM1413 0v1434h901v-195h-696v-362h491v-195h-491v-487h696v-195h-901z" />
<glyph unicode="&#x153;" horiz-adv-x="2457" d="M104 481q0 209 149 355.5t361 146.5t361 -146.5t149 -355.5t-149 -355t-361 -146t-361 146t-149 355zM317 481q0 -128 86.5 -218.5t210.5 -90.5t210.5 90.5t86.5 218.5t-86.5 219t-210.5 91t-210.5 -91t-86.5 -219zM1339 481q0 212 148.5 357t374.5 145 q101 0 193.5 -40.5t155.5 -111.5t89.5 -167t-4.5 -207h-744q0 -125 98.5 -205t233.5 -80q200 0 338 133l96 -133q-195 -192 -450 -192q-150 0 -271.5 67t-189.5 181.5t-68 252.5zM1589 627h504q-8 58 -49.5 97t-89.5 53t-99 14q-195 0 -266 -164z" />
<glyph unicode="&#x178;" d="M45 1434h236l333 -607l334 607h236l-467 -840v-594h-205v594zM285 1659q0 51 36 87t87 36t86.5 -36t35.5 -87t-35.5 -87t-86.5 -36t-87 36t-36 87zM694 1659q0 51 36 87t87 36t87 -36t36 -87t-36 -87t-87 -36t-87 36t-36 87z" />
<glyph unicode="&#x2c6;" d="M221 1120l357 451h71l357 -451l-58 -57l-334 256l-335 -256z" />
<glyph unicode="&#x2dc;" d="M219 1065q0 176 60 292t141 116q39 0 92.5 -27t97.5 -59.5t95 -59.5t86 -27q95 0 127 195h92q0 -192 -59 -303t-152 -111q-35 0 -88.5 28t-100 61.5t-96.5 61.5t-78 28q-39 0 -75 -58t-50 -137h-92z" />
<glyph unicode="&#x2000;" horiz-adv-x="1075" />
<glyph unicode="&#x2001;" horiz-adv-x="2150" />
<glyph unicode="&#x2002;" horiz-adv-x="1075" />
<glyph unicode="&#x2003;" horiz-adv-x="2150" />
<glyph unicode="&#x2004;" horiz-adv-x="716" />
<glyph unicode="&#x2005;" horiz-adv-x="537" />
<glyph unicode="&#x2006;" horiz-adv-x="358" />
<glyph unicode="&#x2007;" horiz-adv-x="358" />
<glyph unicode="&#x2008;" horiz-adv-x="268" />
<glyph unicode="&#x2009;" horiz-adv-x="430" />
<glyph unicode="&#x200a;" horiz-adv-x="119" />
<glyph unicode="&#x2010;" d="M256 457v194h717v-194h-717z" />
<glyph unicode="&#x2011;" d="M256 457v194h717v-194h-717z" />
<glyph unicode="&#x2012;" d="M256 457v194h717v-194h-717z" />
<glyph unicode="&#x2013;" d="M0 457v194h1231v-194h-1231z" />
<glyph unicode="&#x2014;" d="M0 457v194h1231v-194h-1231z" />
<glyph unicode="&#x2018;" d="M457 1266q0 71 48 129.5t130 58.5q65 0 111.5 -47t46.5 -111q0 -56 -35 -99.5t-90 -57.5q6 -186 168 -291l-48 -74q-148 72 -239.5 204.5t-91.5 287.5z" />
<glyph unicode="&#x2019;" d="M393 848q162 105 168 291q-55 14 -90 57.5t-35 99.5q0 64 47 111t111 47q82 0 130 -58.5t48 -129.5q0 -155 -92 -287.5t-240 -204.5z" />
<glyph unicode="&#x201a;" d="M332 -307q162 105 168 291q-55 14 -90 57.5t-35 99.5q0 65 46.5 111.5t110.5 46.5q82 0 130.5 -58.5t48.5 -129.5q0 -155 -92 -287.5t-240 -204.5z" />
<glyph unicode="&#x201c;" d="M201 1270q0 70 47.5 127t128.5 57q63 0 108 -46t45 -110q0 -55 -34 -97t-88 -56q6 -183 165 -285l-47 -74q-145 72 -235 202t-90 282zM705 1270q0 70 47.5 127t128.5 57q63 0 108 -46t45 -110q0 -55 -34.5 -97t-88.5 -56q6 -182 166 -285l-47 -74q-145 72 -235 202 t-90 282z" />
<glyph unicode="&#x201d;" d="M152 860q159 102 165 285q-54 14 -88 56t-34 97q0 64 45 110t108 46q81 0 128.5 -57t47.5 -127q0 -152 -90 -282t-235 -202zM655 860q160 103 166 285q-54 14 -88.5 56t-34.5 97q0 64 45.5 110t108.5 46q81 0 128.5 -57t47.5 -127q0 -151 -90.5 -281t-235.5 -203z" />
<glyph unicode="&#x201e;" d="M152 -305q159 102 165 285q-54 14 -88 56t-34 97q0 64 45 110t108 46q81 0 128.5 -57.5t47.5 -127.5q0 -151 -90 -280.5t-235 -202.5zM655 -305q160 103 166 285q-54 14 -88.5 56t-34.5 97q0 64 45.5 110t108.5 46q81 0 128.5 -57.5t47.5 -127.5q0 -151 -90.5 -280.5 t-235.5 -202.5z" />
<glyph unicode="&#x2022;" d="M315 614q0 123 88 211t211 88t211 -88t88 -211t-88 -211t-211 -88t-211 88t-88 211z" />
<glyph unicode="&#x2026;" d="M88 115q0 55 40 95t95 40t95 -40t40 -95t-40 -95t-95 -40t-95 40t-40 95zM479 115q0 55 39.5 95t95.5 40t96 -40t40 -95t-40 -95t-96 -40t-95.5 40t-39.5 95zM872 115q0 55 40 95t96 40t95.5 -40t39.5 -95t-39.5 -95t-95.5 -40t-96 40t-40 95z" />
<glyph unicode="&#x202f;" horiz-adv-x="430" />
<glyph unicode="&#x2039;" d="M184 614l830 680l59 -57l-510 -623l510 -622l-59 -60z" />
<glyph unicode="&#x203a;" d="M156 -8l510 622l-510 623l59 57l829 -680l-829 -682z" />
<glyph unicode="&#x205f;" horiz-adv-x="537" />
<glyph unicode="&#x2122;" d="M78 1272v162h469v-162h-148v-602h-172v602h-149zM637 670v764h92l125 -289l127 289h92v-764h-153v299l-43 -109h-41l-48 109v-299h-151z" />
<glyph unicode="&#x25fc;" horiz-adv-x="962" d="M0 0v963h963v-963h-963z" />
</font>
</defs>
</svg>
